<svg height="512pt" viewBox="0 0 512 512" width="512pt" xmlns="http://www.w3.org/2000/svg"><path d="m416 512h-320c-53.023438 0-96-42.976562-96-96v-320c0-53.023438 42.976562-96 96-96h320c53.023438 0 96 42.976562 96 96v320c0 53.023438-42.976562 96-96 96zm0 0" fill="transparent"/><path d="m384 157.328125c0-16.175781-13.152344-29.328125-29.328125-29.328125h-197.34375c-16.175781 0-29.328125 13.152344-29.328125 29.328125v197.328125c0 16.191406 13.152344 29.34375 29.328125 29.34375h197.328125c16.191406 0 29.34375-13.152344 29.34375-29.328125zm-63.121094 56.464844c4.160156 4.160156 4.160156 10.910156 0 15.085937l-69.328125 69.328125c-2.078125 2.082031-4.816406 3.121094-7.535156 3.121094-2.734375 0-5.457031-1.039063-7.535156-3.121094l-34.671875-34.671875c-4.160156-4.160156-4.160156-10.910156 0-15.085937s10.910156-4.160157 15.085937 0l27.121094 27.117187 61.792969-61.789062c4.144531-4.144532 10.894531-4.144532 15.070312.015625zm0 0" fill="#ffd200"/></svg>
