<svg height="512pt" viewBox="0 0 512 512" width="512pt" xmlns="http://www.w3.org/2000/svg"><path d="m416 512h-320c-53.023438 0-96-42.976562-96-96v-320c0-53.023438 42.976562-96 96-96h320c53.023438 0 96 42.976562 96 96v320c0 53.023438-42.976562 96-96 96zm0 0" fill="transparent"/><path d="m380.878906 365.792969-72.765625-72.769531c14.09375-17.40625 22.558594-39.550782 22.558594-63.679688 0-55.96875-45.375-101.328125-101.328125-101.328125s-101.34375 45.359375-101.34375 101.3125 45.375 101.328125 101.328125 101.328125c24.144531 0 46.289063-8.480469 63.679687-22.558594l72.769532 72.765625c2.078125 2.082031 4.816406 3.121094 7.535156 3.121094 2.734375 0 5.457031-1.039063 7.535156-3.121094 4.191406-4.160156 4.191406-10.910156.03125-15.070312zm-111.550781-125.792969h-29.328125v29.328125c0 5.886719-4.785156 10.671875-10.671875 10.671875s-10.671875-4.785156-10.671875-10.671875v-29.328125h-29.328125c-5.886719 0-10.671875-4.785156-10.671875-10.671875s4.785156-10.671875 10.671875-10.671875h29.328125v-29.328125c0-5.886719 4.785156-10.671875 10.671875-10.671875s10.671875 4.785156 10.671875 10.671875v29.328125h29.328125c5.886719 0 10.671875 4.785156 10.671875 10.671875s-4.785156 10.671875-10.671875 10.671875zm0 0" fill="#fc573b"/></svg>
