<svg data-v-8f10e08a="" width="18" height="17" fill="none" xmlns="http://www.w3.org/2000/svg"><path data-v-8f10e08a="" fill-rule="evenodd" clip-rule="evenodd" d="M9.871 10.964H4.256c-.737 0-.992-.255-.992-.977l-.001-1.656c-.001-1.96-.002-3.92.007-5.88.001-.305-.062-.42-.393-.407-.548.02-1.098.015-1.647.01l-.487-.005C.294 2.047.16 1.912.155 1.46.15 1.122.152.783.157.445.162.15.323.005.613.005h1.465c.99 0 1.979 0 2.968-.005.222-.001.28.09.278.294-.003.275-.002.55 0 .824.002.403.005.805-.007 1.207-.01.318.1.417.412.416 2.072-.008 4.145-.008 6.217-.008h1.862l.847.003c.648.004 1.296.007 1.944-.009.825-.02 1.268.53 1.107 1.374-.39 2.042-.772 4.085-1.154 6.128-.1.536-.33.733-.9.734H9.87v.001zm2.985 1.995a2.026 2.026 0 012.048 1.991c.012 1.117-.905 2.037-2.029 2.05-.952.01-2.01-.678-2.049-2.03-.031-1.098.918-2.005 2.03-2.011zm-5.895 4.037c1.117-.005 1.989-.9 1.982-2.036-.006-1.136-.876-1.996-2.017-1.995-1.154 0-2.026.874-2.023 2.026.003 1.128.908 2.01 2.058 2.005z" fill="#98A3B3"></path></svg>