<?xml version="1.0" encoding="UTF-8"?>
<svg width="112px" height="198px" viewBox="0 0 112 198" version="1.1" xmlns="http://www.w3.org/2000/svg" xmlns:xlink="http://www.w3.org/1999/xlink">
    <!-- Generator: Sketch 54.1 (76490) - https://sketchapp.com -->
    <title>Group 10</title>
    <desc>Created with Sketch.</desc>
    <defs>
        <polygon id="path-1" points="0.0331443831 0.675180568 12.0911115 0.675180568 12.0911115 13.7197897 0.0331443831 13.7197897"></polygon>
        <linearGradient x1="50%" y1="11.860388%" x2="50%" y2="100%" id="linearGradient-3">
            <stop stop-color="#FDE1C8" offset="0%"></stop>
            <stop stop-color="#FFAA71" offset="100%"></stop>
        </linearGradient>
        <linearGradient x1="40.3073429%" y1="148.962789%" x2="50%" y2="43.4853264%" id="linearGradient-4">
            <stop stop-color="#FDE1C8" offset="0%"></stop>
            <stop stop-color="#F8A064" offset="100%"></stop>
        </linearGradient>
        <linearGradient x1="0%" y1="43.775668%" x2="100%" y2="56.224332%" id="linearGradient-5">
            <stop stop-color="#2AFADF" offset="0%"></stop>
            <stop stop-color="#4C83FF" offset="100%"></stop>
        </linearGradient>
        <linearGradient x1="37.8335847%" y1="3.54950574%" x2="63.0961096%" y2="100%" id="linearGradient-6">
            <stop stop-color="#FAB2FF" offset="0%"></stop>
            <stop stop-color="#1904E5" offset="100%"></stop>
        </linearGradient>
        <linearGradient x1="50%" y1="0%" x2="50%" y2="100%" id="linearGradient-7">
            <stop stop-color="#FFD1EE" offset="0%"></stop>
            <stop stop-color="#FF6BAF" offset="100%"></stop>
        </linearGradient>
        <linearGradient x1="50%" y1="11.860388%" x2="50%" y2="65.2791686%" id="linearGradient-8">
            <stop stop-color="#FDE1C8" offset="0%"></stop>
            <stop stop-color="#FABF97" offset="100%"></stop>
        </linearGradient>
        <linearGradient x1="50%" y1="0%" x2="50%" y2="100%" id="linearGradient-9">
            <stop stop-color="#FFD1EE" offset="0%"></stop>
            <stop stop-color="#FF6BAF" offset="100%"></stop>
        </linearGradient>
        <linearGradient x1="50%" y1="0%" x2="50%" y2="100%" id="linearGradient-10">
            <stop stop-color="#FFD1EE" offset="0%"></stop>
            <stop stop-color="#FF6BAF" offset="100%"></stop>
        </linearGradient>
        <linearGradient x1="38.4078487%" y1="-24.5591816%" x2="38.4078487%" y2="148.962789%" id="linearGradient-11">
            <stop stop-color="#FDE1C8" offset="0%"></stop>
            <stop stop-color="#F8A064" offset="100%"></stop>
        </linearGradient>
        <linearGradient x1="50%" y1="11.860388%" x2="50%" y2="100%" id="linearGradient-12">
            <stop stop-color="#FDE1C8" offset="0%"></stop>
            <stop stop-color="#FABF97" offset="100%"></stop>
        </linearGradient>
        <path d="M2.29513915,0.0125401498 C-2.70875717,0.0125401498 1.34153301,5.09236191 6.93101688,5.48255349 L6.93101688,5.48255349 C7.06440229,5.49750521 7.42369917,5.50589746 7.46967779,5.50522223 L7.46967779,5.50522223 C7.51556161,5.50589746 7.87495329,5.49750521 8.0082439,5.48255349 L8.0082439,5.48255349 C13.5977278,5.09236191 17.6480179,0.0125401498 12.6441216,0.0125401498 L12.6441216,0.0125401498 L2.29513915,0.0125401498 Z" id="path-13"></path>
        <path d="M2.29513915,0.0125401498 C-2.70875717,0.0125401498 1.34153301,5.09236191 6.93101688,5.48255349 L6.93101688,5.48255349 C7.06440229,5.49750521 7.42369917,5.50589746 7.46967779,5.50522223 L7.46967779,5.50522223 C7.51556161,5.50589746 7.87495329,5.49750521 8.0082439,5.48255349 L8.0082439,5.48255349 C13.5977278,5.09236191 17.6480179,0.0125401498 12.6441216,0.0125401498 L12.6441216,0.0125401498" id="path-15"></path>
        <path d="M2.29513915,0.0125401498 C-2.70875717,0.0125401498 1.34153301,5.09236191 6.93101688,5.48255349 L6.93101688,5.48255349 C7.06440229,5.49750521 7.42369917,5.50589746 7.46967779,5.50522223 L7.46967779,5.50522223 C7.51556161,5.50589746 7.87495329,5.49750521 8.0082439,5.48255349 L8.0082439,5.48255349 C13.5977278,5.09236191 17.6480179,0.0125401498 12.6441216,0.0125401498 L12.6441216,0.0125401498 L2.29513915,0.0125401498 Z" id="path-17"></path>
        <linearGradient x1="0%" y1="14.7163808%" x2="63.636801%" y2="85.2836192%" id="linearGradient-19">
            <stop stop-color="#EE9AE5" offset="0%"></stop>
            <stop stop-color="#5961F9" offset="100%"></stop>
        </linearGradient>
    </defs>
    <g id="Page-1" stroke="none" stroke-width="1" fill="none" fill-rule="evenodd">
        <g id="Home-Page-Design---WeDevs-U3" transform="translate(-1475.000000, -6572.000000)">
            <g id="Group-10" transform="translate(1475.000000, 6572.000000)">
                <g id="Group-78" transform="translate(0.000000, 32.118382)">
                    <g id="Group-6" transform="translate(98.926355, 64.284314)">
                        <mask id="mask-2" fill="white">
                            <use xlink:href="#path-1"></use>
                        </mask>
                        <g id="Clip-5"></g>
                        <path d="M6.38634664,1.25455886 C5.53059667,0.652975972 4.19738526,0.608596907 3.01651165,0.728913485 C2.90098029,0.648044965 2.73330646,0.681575815 2.53496059,0.78709937 C1.40725185,0.947850208 0.519807446,1.22201421 0.519807446,1.22201421 L0.0331443831,2.23878792 C0.110846889,2.44687642 0.237624662,2.73188864 0.396096878,3.06522474 C0.263184696,4.2585285 -0.496459538,11.6343292 1.82439162,5.83940944 C2.87133065,7.78814351 3.96530014,9.71715356 3.96530014,9.71715356 C7.76658852,19.5900164 5.41404291,7.97453559 5.41404291,7.97453559 C9.01085101,19.2803491 7.20631255,7.32462883 7.20631255,7.32462883 C12.7344369,17.8967084 8.87896123,7.21811907 8.87896123,7.21811907 C17.5918659,14.589975 6.38634664,1.25455886 6.38634664,1.25455886" id="Fill-4" fill="url(#linearGradient-3)" mask="url(#mask-2)"></path>
                    </g>
                    <polygon id="Fill-7" fill="url(#linearGradient-4)" transform="translate(63.063725, 10.678941) rotate(-13.000000) translate(-63.063725, -10.678941) " points="69.655058 2.07595894 70.9303497 19.2819238 55.1971 18.5080993 58.1950791 5.52242491"></polygon>
                    <polygon id="Fill-9" fill="#FFA666" points="62.1159181 151.352941 60.8153819 161.476526 65.2971008 162.745098 67.3023559 151.900733"></polygon>
                    <polygon id="Fill-17" fill="#FFA666" points="54.4204934 146.470588 55.9501513 160.156062 51.6880444 162.745098 49.4631773 148.199605"></polygon>
                    <path d="M34.88348,165.232913 C34.6024327,163.091248 38.233074,160.635159 42.0717445,159.564326 C44.6308582,158.850438 47.5713698,158.260537 50.8932793,157.794625 L55.9501513,157.794625 L55.9501513,165.186275 C41.9057038,165.217367 34.88348,165.232913 34.88348,165.232913 Z" id="Path" fill="url(#linearGradient-5)"></path>
                    <path d="M60.8307026,165.232913 C60.5496554,163.091248 64.1802967,160.635159 68.0189672,159.564326 C70.5780809,158.850438 73.5185925,158.260537 76.840502,157.794625 L81.897374,157.794625 L81.897374,165.186275 C67.8529264,165.217367 60.8307026,165.232913 60.8307026,165.232913 Z" id="Path-Copy" fill="url(#linearGradient-5)" transform="translate(71.356378, 161.513769) scale(-1, 1) translate(-71.356378, -161.513769) "></path>
                    <path d="M83.2384661,63.3747838 C85.5417024,70.9554873 88.1499499,105.359405 68.9375412,154.560836 C68.9375412,154.560836 63.6747361,157.769108 59.4635166,153.758025 C59.4635166,153.758025 67.016788,110.281332 66.7534039,81.6705239 L64.1224891,81.6705239 C64.1224891,81.6705239 52.8837909,105.091801 51.5678458,111.77694 C50.2528761,118.462078 57.3583946,151.083969 55.7790653,154.025629 C55.7790653,154.025629 50.5152848,156.699684 46.3050407,156.164477 C46.3050407,156.164477 38.4093699,123.542586 37.3568089,114.717608 C36.3042479,105.893621 50.1465206,67.0266577 50.1465206,67.0266577 L83.2384661,63.3747838 Z" id="Fill-27" fill="url(#linearGradient-6)"></path>
                    <path d="M57.1993838,11.9753194 C56.7840081,15.4799404 56.9753178,18.2860672 63.713541,18.2860672 C71.3271566,18.2860672 70.9775069,14.7034666 70.5892006,10.5786711 C75.8004452,10.5903448 81.80581,11.0274727 85.9524064,11.6950522 C85.9524064,11.6950522 84.3433374,51.0150691 83.5431644,65.1092977 C83.5431644,65.1092977 66.2189259,73.8848006 49.4291238,69.629623 C49.4291238,69.629623 45.5752835,34.8299314 42.9762032,16.6806182 C42.9762032,16.6806182 49.6588494,13.8262198 57.1993838,11.9753194 Z" id="Combined-Shape" fill="url(#linearGradient-7)"></path>
                    <path d="M16.5627652,33.53708 C16.5627652,33.53708 9.79022579,28.6558912 8.30200914,27.5867704 C3.55250109,24.1747688 -1.77400927,22.0971211 1.17822813,25.492188 C4.13046554,28.8872549 0.810871758,32.7095549 6.54343101,34.2771633 C12.2759903,35.8447717 14.9785245,39.6365919 14.9785245,39.6365919 L16.5627652,33.53708 Z" id="Fill-69" fill="url(#linearGradient-8)"></path>
                    <path d="M45.905831,34.88355 C46.7624579,34.7985116 47.2022112,34.9697437 46.9681775,35.5284651 C42.2183212,46.8657663 35.0955241,52.0784314 35.0955241,52.0784314 C27.9150927,49.8186282 11.3522046,37.6135311 11.3522046,37.6135311 C11.6165272,33.312837 15.540624,31.7352941 15.540624,31.7352941 C20.1851082,35.684212 29.7839607,39.0469059 31.709988,39.6970581 C35.0581143,29.9451901 42.7518029,16.2745098 42.7518029,16.2745098 L47.8414337,31.5578924 L45.905831,34.88355 Z" id="Combined-Shape" fill="url(#linearGradient-9)"></path>
                    <path d="M85.7206858,12.2058824 C85.7206858,12.2058824 102.931763,51.549104 105.413329,64.8485394 C105.413329,64.8485394 103.756368,67.9177155 98.6769583,68.3529412 L81.8980476,27.6961829 L85.7206858,12.2058824 Z" id="Fill-55" fill="url(#linearGradient-10)"></path>
                    <path d="M8.10871758,27.338679 C8.10871758,27.338679 9.25602971,24.663984 11.3574118,26.9892582 C13.4577821,29.3134832 12.9094195,31.7352941 12.9094195,31.7352941 L8.10871758,27.338679 Z" id="Fill-67" fill="#FFDACB"></path>
                    <path d="M8.8854067,26.0456842 C8.8854067,26.0456842 6.79957666,25.8121875 6.50857513,28.150951 C6.2175736,30.4887652 8.96294329,27.6592791 8.96294329,27.6592791 C8.96294329,27.6592791 7.69364057,28.0038291 10.0436694,30.1052992 C12.3946554,32.2067692 12.1563022,29.5870504 12.1563022,29.5870504 L11.7963792,28.9102897" id="Fill-72" fill="#FFDACB"></path>
                </g>
                <g id="Group-36" transform="translate(60.955662, 21.299162) rotate(-3.000000) translate(-60.955662, -21.299162) translate(46.455662, 0.799162)">
                    <g id="Group-7" transform="translate(0.000000, 19.182295)" fill="url(#linearGradient-11)">
                        <path d="M24.3689166,7.21099917 C23.1992341,6.72855131 22.8784571,4.75224937 23.6524535,2.79654213 C24.4265464,0.841031962 26.0021474,-0.353262986 27.1719265,0.129184874 C28.341609,0.611534195 28.662386,2.58793467 27.8882931,4.54354338 C27.1142967,6.49915208 25.5385991,7.69334849 24.3689166,7.21099917" id="Fill-1"></path>
                        <path d="M3.97155334,7.21099917 C5.14123585,6.72855131 5.46201286,4.75224937 4.68801646,2.79654213 C3.91392353,0.841031962 2.33822594,-0.353262986 1.16854343,0.129184874 C-0.00113908176,0.611534195 -0.321916088,2.58793467 0.452176844,4.54354338 C1.22617324,6.49915208 2.80187083,7.69334849 3.97155334,7.21099917" id="Fill-3"></path>
                    </g>
                    <g id="Group-23" transform="translate(2.365043, 5.594836)">
                        <path d="M11.8534971,34.321134 C9.63634206,34.321134 3.56754614,31.4252667 1.30173877,28.3407622 C-0.243454592,26.237307 0.46045932,24.8746145 0.46045932,21.0319691 C0.46045932,11.5546735 -3.08063696,0.000815518477 11.8534971,0.000815518477 C26.7875347,0.000815518477 23.2464384,11.5546735 23.2464384,21.0319691 C23.2464384,24.9391764 23.916759,26.2575979 22.3266781,28.3688199 C20.060002,31.3784714 14.0706522,34.321134 11.8534971,34.321134" id="Fill-11" fill="url(#linearGradient-12)"></path>
                        <path d="M6.41969102,16.3587473 C7.60443258,16.4420467 8.72864835,17.2909626 8.82991079,16.1917602 C8.94671493,14.9230464 7.77423298,14.0851012 6.59296659,13.9624821 C5.67378553,13.86695 4.36026982,14.8335335 4.40361284,15.9374931 C4.45187902,17.1686348 5.23494946,16.2754479 6.41969102,16.3587473" id="Fill-13" fill="#454547"></path>
                        <path d="M17.2872163,16.3587473 C16.1025713,16.4420467 14.978259,17.2909626 14.8769966,16.1917602 C14.7601924,14.9230464 15.9326744,14.0851012 17.1139408,13.9624821 C18.0331218,13.86695 19.3467341,14.8335335 19.3033911,15.9374931 C19.2550283,17.1686348 18.4719579,16.2754479 17.2872163,16.3587473" id="Fill-15" fill="#454547"></path>
                        <path d="M6.39094368,16.3702713 C7.5731754,16.4533765 8.6950744,17.3007391 8.79614377,16.2035755 C8.91275485,14.9371918 7.74268621,14.1007999 6.56383313,13.9784721 C5.64658272,13.8832312 4.3357699,14.8478731 4.3790164,15.9497939 C4.42718604,17.1786055 5.20861543,16.287069 6.39094368,16.3702713" id="Fill-17" fill="#3C3C3B"></path>
                        <path d="M17.3160892,16.3702713 C16.1337609,16.4533765 15.0118619,17.3007391 14.9107926,16.2035755 C14.7941815,14.9371918 15.9643466,14.1007999 17.1431032,13.9784721 C18.0603536,13.8832312 19.371263,14.8478731 19.3280165,15.9497939 C19.2797503,17.1786055 18.4983209,16.287069 17.3160892,16.3702713" id="Fill-19" fill="#3C3C3B"></path>
                        <path d="M6.58447174,24.963574 L17.122426,24.963574 C22.2176931,24.963574 18.0934449,30.0761952 12.4018974,30.4690033 C12.2661729,30.4839545 11.9002188,30.4924009 11.8534971,30.4917213 C11.8066789,30.4924009 11.4408213,30.4839545 11.3050003,30.4690033 C5.61345281,30.0761952 1.4892046,24.963574 6.58447174,24.963574" id="Fill-21" fill="#BC5B59"></path>
                    </g>
                    <g id="Group-33" transform="translate(7.095128, 30.371967)">
                        <g id="Group-26">
                            <mask id="mask-14" fill="white">
                                <use xlink:href="#path-13"></use>
                            </mask>
                            <g id="Clip-25"></g>
                            <path d="M11.9558738,-1.7417207 C11.9558738,-1.7417207 13.1586177,-1.7417207 13.1586177,-0.518091466 L13.1586177,0.0938678444 C13.1586177,0.0938678444 13.1586177,1.31769 11.9558738,1.31769 L2.98340598,1.31769 C2.98340598,1.31769 1.78066205,1.31769 1.78066205,0.0938678444 L1.78066205,-0.518091466 C1.78066205,-0.518091466 1.78066205,-1.7417207 2.98340598,-1.7417207 L11.9558738,-1.7417207 Z" id="Fill-24" fill="#FFFFFF" mask="url(#mask-14)"></path>
                        </g>
                        <g id="Group-29">
                            <mask id="mask-16" fill="white">
                                <use xlink:href="#path-15"></use>
                            </mask>
                            <g id="Clip-28"></g>
                            <path d="M2.29513915,7.14542559 L12.6441216,7.14542559 C17.6480179,7.14542559 13.5977278,2.06550737 8.0082439,1.67531578 C7.87495329,1.6602676 7.51556161,1.65197181 7.46967779,1.65274351 C7.42369917,1.65197181 7.06430749,1.6602676 6.93101688,1.67531578 C1.34153301,2.06550737 -2.70875717,7.14542559 2.29513915,7.14542559" id="Fill-27" fill="#DB8B99" mask="url(#mask-16)"></path>
                        </g>
                        <g id="Group-32">
                            <mask id="mask-18" fill="white">
                                <use xlink:href="#path-17"></use>
                            </mask>
                            <g id="Clip-31"></g>
                            <path d="M10.7401136,4.17985379 C10.7401136,4.17985379 11.6168359,4.17985379 11.6168359,5.07194076 L11.6168359,5.51798424 C11.6168359,5.51798424 11.6168359,6.4100712 10.7401136,6.4100712 L4.19910924,6.4100712 C4.19910924,6.4100712 3.32238694,6.4100712 3.32238694,5.51798424 L3.32238694,5.07194076 C3.32238694,5.07194076 3.32238694,4.17985379 4.19910924,4.17985379 L10.7401136,4.17985379 Z" id="Fill-30" fill="#FFFFFF" mask="url(#mask-18)"></path>
                        </g>
                    </g>
                    <path d="M27.506841,5.05551018 C27.4232655,4.39336507 26.7467567,4.49339861 26.0792128,4.5350472 C23.9966685,4.66499462 23.4877928,3.96495218 19.2353693,1.46690298 C14.99808,-1.02239328 10.6619846,-0.03004129 7.77250743,2.11288883 C-5.51966578,5.17420383 2.26587251,23.1786066 2.26587251,23.1786066 C2.26587251,23.1786066 2.21699962,13.7018711 6.32791345,10.820905 C13.2118578,15.504591 20.245891,15.7593879 24.2506726,12.9738385 C25.795615,16.569852 25.2910772,23.1786066 25.2910772,23.1786066 C25.2910772,23.1786066 27.9498781,16.4937688 26.4986328,10.5776504 C27.3880808,9.07522348 27.7791604,7.21411863 27.506841,5.05551018" id="Fill-34" fill="url(#linearGradient-19)"></path>
                </g>
            </g>
        </g>
    </g>
</svg>