<?xml version="1.0" encoding="UTF-8"?>
<svg width="150px" height="153px" viewBox="0 0 150 153" version="1.1" xmlns="http://www.w3.org/2000/svg" xmlns:xlink="http://www.w3.org/1999/xlink">
    <!-- Generator: Sketch 54.1 (76490) - https://sketchapp.com -->
    <title>Group 19</title>
    <desc>Created with Sketch.</desc>
    <defs>
        <linearGradient x1="96.8262227%" y1="139.683817%" x2="14.4104826%" y2="0%" id="linearGradient-1">
            <stop stop-color="#007CF5" offset="0%"></stop>
            <stop stop-color="#8D7DFE" offset="100%"></stop>
            <stop stop-color="#8C7CFF" offset="100%"></stop>
        </linearGradient>
        <path d="M30,9 L60,9 C76.5685425,9 90,22.4314575 90,39 L90,72 C90,88.5685425 76.5685425,102 60,102 L30,102 C13.4314575,102 2.02906125e-15,88.5685425 0,72 L0,39 C-2.02906125e-15,22.4314575 13.4314575,9 30,9 Z" id="path-2"></path>
        <filter x="-61.1%" y="-37.6%" width="222.2%" height="218.3%" filterUnits="objectBoundingBox" id="filter-3">
            <feOffset dx="0" dy="20" in="SourceAlpha" result="shadowOffsetOuter1"></feOffset>
            <feGaussianBlur stdDeviation="15" in="shadowOffsetOuter1" result="shadowBlurOuter1"></feGaussianBlur>
            <feColorMatrix values="0 0 0 0 0.00905106707   0 0 0 0 0.180326191   0 0 0 0 1  0 0 0 0.16 0" type="matrix" in="shadowBlurOuter1"></feColorMatrix>
        </filter>
        <linearGradient x1="28.1510793%" y1="0%" x2="57.3399347%" y2="113.168299%" id="linearGradient-4">
            <stop stop-color="#FFD3A5" offset="0%"></stop>
            <stop stop-color="#FD6585" offset="100%"></stop>
        </linearGradient>
        <path d="M72.9890245,24 C79.4852811,19.0814323 82.7352732,14.5824499 84.2635606,11.150749 C86.0490475,7.14113723 84.4959099,2.17066663 80.6002268,0.502793729 C76.0211632,-1.4568697 72.9890245,3.0643569 72.9890245,3.0643569 C72.9890245,3.0643569 69.9784227,-1.468646 65.3997732,0.491889749 C61.5040901,2.15976265 59.9509525,7.13023325 61.7364394,11.1398451 C63.2647268,14.5711097 66.4927679,19.0818685 72.9890245,24 Z" id="path-5"></path>
        <filter x="-95.8%" y="-50.0%" width="291.7%" height="300.0%" filterUnits="objectBoundingBox" id="filter-6">
            <feOffset dx="0" dy="13" in="SourceAlpha" result="shadowOffsetOuter1"></feOffset>
            <feGaussianBlur stdDeviation="5.5" in="shadowOffsetOuter1" result="shadowBlurOuter1"></feGaussianBlur>
            <feColorMatrix values="0 0 0 0 0   0 0 0 0 0   0 0 0 0 0  0 0 0 0.201786495 0" type="matrix" in="shadowBlurOuter1"></feColorMatrix>
        </filter>
    </defs>
    <g id="Page-1" stroke="none" stroke-width="1" fill="none" fill-rule="evenodd">
        <g id="Home-Page-Design---WeDevs-U3" transform="translate(-437.000000, -6558.000000)">
            <g id="Group-19" transform="translate(467.000000, 6559.000000)">
                <g id="Rectangle-2-Copy-10" fill-rule="nonzero">
                    <use fill="black" fill-opacity="1" filter="url(#filter-3)" xlink:href="#path-2"></use>
                    <use fill="url(#linearGradient-1)" xlink:href="#path-2"></use>
                </g>
                <g id="Logo-Copy" transform="translate(24.000000, 35.000000)" fill="#FFFFFF">
                    <path d="M36.0130161,5.66941689 C36.0130161,5.66941689 38.8477267,12.1100316 30.7960967,27.2717416 C29.2709205,27.071098 27.7455135,26.6951213 26.4029986,26.2880816 C26.4728804,22.4105053 26.3464935,11.2959523 22.8131954,6.83278183 C22.8131954,6.83278183 19.8087388,1.87375471 14.1831377,3.01894207 C14.1831377,3.01894207 8.81515378,4.61419704 8.73212589,10.633276 C8.67908029,10.6477721 8.62442026,10.6606574 8.57183593,10.6753836 C7.93482748,10.8511769 7.29090004,11.0403157 6.65066272,11.2529243 C6.5625609,8.7828447 7.13107134,3.74650535 12.7811195,1.3843407 C12.7811195,1.3843407 14.9663675,0.0764755298 23.4130719,0.00422541304 C23.4130719,0.00422541304 32.8086006,-0.359786322 36.0130161,5.66941689 Z M19.5790744,37.4936605 C19.9999797,37.8664159 20.4494835,38.2644818 20.9232038,38.6659992 C17.8592439,40.9984815 13.0440873,41.3783698 10.0299441,38.7497541 C8.32741104,37.2649452 6.72128256,35.649902 5.28928203,33.9025536 C2.84826195,30.9232717 0.909099369,27.5095688 0.212818227,23.6915873 C-0.32824688,20.7231199 0.0606004224,16.8865006 2.57127167,14.8586653 C4.37943469,13.3984767 6.73027725,12.6161506 8.94089492,12.0057061 C13.4638394,10.7574358 18.2598534,10.1444603 22.970072,9.93760405 C23.4094279,11.0211257 23.7865129,12.3289909 24.0923323,13.8441725 C17.4900004,17.4688734 10.8147884,24.4884094 10.8147884,24.4884094 L10.7416777,24.5981652 C10.7416777,24.5981652 4.8423152,30.7009991 9.7582584,36.1508208 C9.7582584,36.1508208 14.0383463,40.3199286 19.4773653,37.4032328 C19.5114989,37.4338356 19.5444795,37.4625976 19.5790744,37.4936605 Z M42.8576972,21.8003829 C42.8576972,21.8003829 43.6596083,27.6144465 36.4495583,36.3314001 C34.7225781,38.3465801 32.0493105,40.4738168 29.3808863,40.9321678 C25.9871211,41.5152309 22.4796539,38.2059915 20.1110526,36.1192516 C16.7415039,33.1498639 13.8521332,29.6540166 11.4892977,25.8410973 C11.640593,25.6597817 11.736767,25.5576191 11.7402265,25.5537075 L11.8237156,25.4667312 L11.8933668,25.3634182 L11.8982101,25.3562852 C12.1883465,25.0567003 13.2515648,23.9734087 14.7829681,22.5663722 C16.2011307,23.3776904 18.6848179,24.729734 21.4222014,25.9062144 C21.4222014,25.9062144 28.1186317,29.0283859 33.5475028,28.7920774 C33.8872252,28.7794221 34.2131097,28.7525009 34.5237724,28.7110836 C34.5258481,28.7108535 34.5279238,28.7108535 34.5299995,28.7106234 L34.5299995,28.7101632 C40.3735488,27.9289876 41.2192801,22.309125 41.2192801,22.309125 C41.5945201,18.185346 38.9205606,15.7640467 37.2147987,14.6540641 C37.3594056,14.0015121 37.4814105,13.3618454 37.5794295,12.7352942 C39.61984,13.8484983 43.0110682,16.5015041 42.8576972,21.8003829 Z" id="Combined-Shape"></path>
                </g>
                <g id="Path" fill-rule="nonzero">
                    <use fill="black" fill-opacity="1" filter="url(#filter-6)" xlink:href="#path-5"></use>
                    <use fill="url(#linearGradient-4)" xlink:href="#path-5"></use>
                </g>
            </g>
        </g>
    </g>
</svg>