<?xml version="1.0" encoding="UTF-8"?>
<svg width="1921px" height="556px" viewBox="0 0 1921 556" version="1.1" xmlns="http://www.w3.org/2000/svg" xmlns:xlink="http://www.w3.org/1999/xlink">
    <!-- Generator: Sketch 54.1 (76490) - https://sketchapp.com -->
    <title>Group 3</title>
    <desc>Created with Sketch.</desc>
    <defs>
        <linearGradient x1="25.8720682%" y1="11.6444252%" x2="72.8860349%" y2="141.29523%" id="linearGradient-1">
            <stop stop-color="#007CF5" stop-opacity="0.1" offset="0%"></stop>
            <stop stop-color="#F5F7F9" stop-opacity="0.19217111" offset="100%"></stop>
        </linearGradient>
        <linearGradient x1="25.8720682%" y1="7.06850284%" x2="40.0129008%" y2="100%" id="linearGradient-2">
            <stop stop-color="#007CF5" stop-opacity="0.1" offset="0%"></stop>
            <stop stop-color="#F5F7F9" stop-opacity="0.19217111" offset="100%"></stop>
        </linearGradient>
        <linearGradient x1="53.6734115%" y1="2.49800181e-14%" x2="53.6734115%" y2="97.906989%" id="linearGradient-3">
            <stop stop-color="#007CF5" stop-opacity="0.1" offset="0%"></stop>
            <stop stop-color="#F5F7F9" stop-opacity="0" offset="100%"></stop>
        </linearGradient>
        <linearGradient x1="53.6734115%" y1="2.49800181e-14%" x2="53.6734115%" y2="97.906989%" id="linearGradient-4">
            <stop stop-color="#007CF5" stop-opacity="0.1" offset="0%"></stop>
            <stop stop-color="#F5F7F9" stop-opacity="0" offset="100%"></stop>
        </linearGradient>
        <linearGradient x1="53.6734115%" y1="2.49800181e-14%" x2="53.6734115%" y2="97.906989%" id="linearGradient-5">
            <stop stop-color="#0043F5" stop-opacity="0.07" offset="0%"></stop>
            <stop stop-color="#F5F7F9" stop-opacity="0" offset="100%"></stop>
        </linearGradient>
        <linearGradient x1="53.6734115%" y1="2.49800181e-14%" x2="53.6734115%" y2="81.0697115%" id="linearGradient-6">
            <stop stop-color="#4200F5" stop-opacity="0.1" offset="0%"></stop>
            <stop stop-color="#F5F7F9" stop-opacity="0" offset="100%"></stop>
        </linearGradient>
        <linearGradient x1="53.6734115%" y1="2.49800181e-14%" x2="53.6734115%" y2="97.906989%" id="linearGradient-7">
            <stop stop-color="#F55F00" stop-opacity="0.1" offset="0%"></stop>
            <stop stop-color="#F5F7F9" stop-opacity="0" offset="100%"></stop>
        </linearGradient>
        <linearGradient x1="-1.11022302e-14%" y1="50%" x2="100%" y2="50%" id="linearGradient-8">
            <stop stop-color="#FFFFFF" offset="0%"></stop>
            <stop stop-color="#FFFFFF" stop-opacity="0" offset="100%"></stop>
        </linearGradient>
        <linearGradient x1="53.6734115%" y1="2.49800181e-14%" x2="53.6734115%" y2="97.906989%" id="linearGradient-9">
            <stop stop-color="#0043F5" stop-opacity="0.07" offset="0%"></stop>
            <stop stop-color="#F5F7F9" stop-opacity="0" offset="100%"></stop>
        </linearGradient>
        <linearGradient x1="53.6734115%" y1="2.49800181e-14%" x2="53.6734115%" y2="81.0697115%" id="linearGradient-10">
            <stop stop-color="#4200F5" stop-opacity="0.1" offset="0%"></stop>
            <stop stop-color="#F5F7F9" stop-opacity="0" offset="100%"></stop>
        </linearGradient>
        <linearGradient x1="53.6734115%" y1="2.49800181e-14%" x2="53.6734115%" y2="97.906989%" id="linearGradient-11">
            <stop stop-color="#F55F00" stop-opacity="0.1" offset="0%"></stop>
            <stop stop-color="#F5F7F9" stop-opacity="0" offset="100%"></stop>
        </linearGradient>
        <linearGradient x1="-1.11022302e-14%" y1="50%" x2="100%" y2="50%" id="linearGradient-12">
            <stop stop-color="#FFFFFF" offset="0%"></stop>
            <stop stop-color="#FFFFFF" stop-opacity="0" offset="100%"></stop>
        </linearGradient>
        <linearGradient x1="57.134283%" y1="90.6704769%" x2="38.1419938%" y2="1.66533454e-14%" id="linearGradient-13">
            <stop stop-color="#ABDCFF" stop-opacity="0" offset="0%"></stop>
            <stop stop-color="#0396FF" offset="100%"></stop>
        </linearGradient>
        <polygon id="path-14" points="0.64625 0.54263 21.8691 0.54263 21.8691 10.63183 0.64625 10.63183"></polygon>
        <linearGradient x1="14.5524094%" y1="42.0206137%" x2="82.7722259%" y2="57.9664821%" id="linearGradient-16">
            <stop stop-color="#7ED500" offset="0%"></stop>
            <stop stop-color="#00BF8D" offset="100%"></stop>
        </linearGradient>
        <linearGradient x1="14.5524094%" y1="46.0767727%" x2="82.7722259%" y2="53.9168827%" id="linearGradient-17">
            <stop stop-color="#7ED500" offset="0%"></stop>
            <stop stop-color="#00BF8D" offset="100%"></stop>
        </linearGradient>
        <linearGradient x1="45.6239173%" y1="96.4354789%" x2="55.9016946%" y2="15.1491852%" id="linearGradient-18">
            <stop stop-color="#FDE1C8" offset="0%"></stop>
            <stop stop-color="#FABF97" offset="100%"></stop>
        </linearGradient>
        <linearGradient x1="0%" y1="37.5%" x2="85.7611205%" y2="65.0972602%" id="linearGradient-19">
            <stop stop-color="#ABDCFF" offset="0%"></stop>
            <stop stop-color="#0396FF" offset="100%"></stop>
        </linearGradient>
        <linearGradient x1="22.9303829%" y1="0%" x2="94.786352%" y2="100%" id="linearGradient-20">
            <stop stop-color="#EE9AE5" offset="0%"></stop>
            <stop stop-color="#5961F9" offset="100%"></stop>
        </linearGradient>
        <linearGradient x1="50%" y1="11.860388%" x2="50%" y2="100%" id="linearGradient-21">
            <stop stop-color="#FDE1C8" offset="0%"></stop>
            <stop stop-color="#FABF97" offset="100%"></stop>
        </linearGradient>
        <linearGradient x1="68.3652878%" y1="-22.8847766%" x2="68.3652878%" y2="109.293916%" id="linearGradient-22">
            <stop stop-color="#F9FBFE" offset="0%"></stop>
            <stop stop-color="#C2D7F3" offset="100%"></stop>
        </linearGradient>
        <linearGradient x1="29.2345679%" y1="0%" x2="64.8519024%" y2="110.389041%" id="linearGradient-23">
            <stop stop-color="#ABDCFF" offset="0%"></stop>
            <stop stop-color="#0396FF" offset="100%"></stop>
        </linearGradient>
        <linearGradient x1="31.7328805%" y1="33.1827068%" x2="64.8139853%" y2="69.1994358%" id="linearGradient-24">
            <stop stop-color="#FDE1C8" offset="0%"></stop>
            <stop stop-color="#FABF97" offset="100%"></stop>
        </linearGradient>
        <linearGradient x1="40.9388542%" y1="17.0171725%" x2="70.7635833%" y2="95.8271578%" id="linearGradient-25">
            <stop stop-color="#FDE1C8" offset="0%"></stop>
            <stop stop-color="#FABF97" offset="100%"></stop>
        </linearGradient>
        <linearGradient x1="0%" y1="5.82%" x2="112.834783%" y2="123.612127%" id="linearGradient-26">
            <stop stop-color="#FFD3A5" offset="0%"></stop>
            <stop stop-color="#FD6585" offset="100%"></stop>
        </linearGradient>
        <path d="M29.0732256,95.7315643 C29.0732256,95.7315643 22.5017177,65.442765 41.8810606,61.3120796 C61.2593117,57.1803088 62.7299582,95.4407015 62.7299582,95.4407015 C62.7299582,95.4407015 57.0013152,136.490338 110.684825,122.939172 C110.684825,122.939172 124.548424,119.111287 127.342325,130.917277 C130.137318,142.722181 123.617124,149.204731 115.46579,151.287439 C107.31664,153.371232 70.9904713,156.379708 61.4416413,154.297 C61.4416413,154.297 43.7436611,153.602403 29.0732256,95.7315643" id="path-27"></path>
        <linearGradient x1="100%" y1="0%" x2="100%" y2="211.254883%" id="linearGradient-28">
            <stop stop-color="#FFA1EB" offset="0%"></stop>
            <stop stop-color="#FD575B" offset="100%"></stop>
        </linearGradient>
        <linearGradient x1="100%" y1="0%" x2="100%" y2="211.254883%" id="linearGradient-29">
            <stop stop-color="#FFA1EB" offset="0%"></stop>
            <stop stop-color="#FD575B" offset="100%"></stop>
        </linearGradient>
        <linearGradient x1="24.4897959%" y1="25.2689113%" x2="67.0451239%" y2="86.9045621%" id="linearGradient-30">
            <stop stop-color="#FDE1C8" offset="0%"></stop>
            <stop stop-color="#FABF97" offset="100%"></stop>
        </linearGradient>
        <linearGradient x1="50%" y1="0%" x2="50%" y2="100%" id="linearGradient-31">
            <stop stop-color="#91D1E8" offset="0%"></stop>
            <stop stop-color="#49CDFF" offset="100%"></stop>
        </linearGradient>
        <linearGradient x1="50%" y1="5.79627437%" x2="53.125%" y2="100%" id="linearGradient-32">
            <stop stop-color="#72D0FF" offset="0%"></stop>
            <stop stop-color="#0D75CF" offset="100%"></stop>
        </linearGradient>
        <path d="M341.781069,459.156322 C341.589659,458.991798 341.317261,458.953627 341.086386,459.058565 L299.371933,478.05215 C299.147357,478.154442 299.002738,478.374017 299.000038,478.616646 C298.997339,478.859275 299.137201,479.081874 299.359593,479.188827 L311.164718,484.866293 C311.381196,484.970475 311.639325,484.946918 311.832664,484.805321 L323.310501,476.398469 L314.299923,485.481306 C314.171373,485.610935 314.105812,485.788434 314.119953,485.968579 L315.017103,497.418371 C315.037028,497.672086 315.21057,497.889016 315.457258,497.968506 C315.523204,497.98967 315.590949,498 315.657924,498 C315.841622,498 316.020306,497.922777 316.144614,497.781684 L322.410395,490.666333 L330.156171,494.29317 C330.324314,494.371904 330.518939,494.37518 330.689781,494.302366 C330.860624,494.229426 330.990717,494.087577 331.046508,493.913479 L341.970423,459.818575 C342.046782,459.580481 341.972352,459.320846 341.781069,459.156322 Z" id="path-33"></path>
        <filter x="-197.7%" y="-166.7%" width="495.3%" height="535.9%" filterUnits="objectBoundingBox" id="filter-34">
            <feOffset dx="0" dy="20" in="SourceAlpha" result="shadowOffsetOuter1"></feOffset>
            <feGaussianBlur stdDeviation="25" in="shadowOffsetOuter1" result="shadowBlurOuter1"></feGaussianBlur>
            <feColorMatrix values="0 0 0 0 0.231372549   0 0 0 0 0.501960784   0 0 0 0 0.956862745  0 0 0 0.25 0" type="matrix" in="shadowBlurOuter1"></feColorMatrix>
        </filter>
    </defs>
    <g id="Page-1" stroke="none" stroke-width="1" fill="none" fill-rule="evenodd">
        <g id="Home-Page-Design---WeDevs-U3" transform="translate(0.000000, -6817.000000)">
            <g id="Group-3" transform="translate(-11.000000, 6611.000000)">
                <path d="M1725.34649,225.125524 C1725.34649,225.125524 1735.03159,246.85265 1707.52232,298 C1702.31139,297.323138 1697.09967,296.054797 1692.51282,294.681667 C1692.75158,281.600837 1692.31976,244.106389 1680.24786,229.050084 C1680.24786,229.050084 1669.98281,212.321028 1650.76233,216.184266 C1650.76233,216.184266 1632.42203,221.565787 1632.13836,241.870881 C1631.95712,241.919783 1631.77037,241.963251 1631.59071,242.012929 C1629.4143,242.60596 1627.21425,243.244011 1625.02681,243.961237 C1624.7258,235.628534 1626.66818,218.638668 1645.97218,210.670011 C1645.97218,210.670011 1653.43832,206.257987 1682.29741,206.014254 C1682.29741,206.014254 1714.39826,204.786277 1725.34649,225.125524 Z M1669.6388,331.548387 C1671.07138,332.813832 1672.6013,334.165201 1674.21364,335.528288 C1663.78523,343.446691 1647.3965,344.736351 1637.13764,335.812623 C1631.34295,330.771935 1625.87637,325.289123 1621.00245,319.357156 C1612.69427,309.242972 1606.09419,297.653999 1603.72434,284.692564 C1601.88279,274.615094 1603.20626,261.590388 1611.75151,254.706213 C1617.90572,249.749107 1625.90699,247.093235 1633.43098,245.020874 C1648.82515,240.783197 1665.14874,238.702244 1681.18031,238 C1682.67569,241.678382 1683.95912,246.118374 1685,251.262172 C1662.52848,263.56745 1639.80892,287.397648 1639.80892,287.397648 L1639.56008,287.770251 C1639.56008,287.770251 1619.48117,308.488392 1636.21294,326.989662 C1636.21294,326.989662 1650.78053,341.143113 1669.29262,331.241399 C1669.4088,331.345291 1669.52105,331.442933 1669.6388,331.548387 Z M1748.9095,278.78923 C1748.9095,278.78923 1751.64257,298.536476 1727.06934,328.143278 C1721.18346,334.98776 1712.07246,342.212839 1702.97796,343.769611 C1691.41135,345.749962 1679.45724,334.510256 1671.38459,327.422723 C1659.90052,317.337311 1650.053,305.463798 1642,292.513362 C1642.51564,291.897531 1642.84342,291.55054 1642.85521,291.537254 L1643.13976,291.241842 L1643.37714,290.890943 L1643.39365,290.866717 C1644.38249,289.849188 1648.00614,286.169829 1653.22546,281.390883 C1658.05883,284.146495 1666.52371,288.738659 1675.85324,292.73453 C1675.85324,292.73453 1698.67595,303.338867 1717.17858,302.536254 C1718.33642,302.493271 1719.4471,302.401834 1720.50589,302.261162 C1720.51297,302.26038 1720.52004,302.26038 1720.52712,302.259599 L1720.52712,302.258036 C1740.44305,299.604803 1743.32547,280.517153 1743.32547,280.517153 C1744.60435,266.510894 1735.49099,258.287043 1729.67743,254.517029 C1730.17027,252.300661 1730.58609,250.128057 1730.92016,248 C1737.87427,251.780955 1749.43222,260.791789 1748.9095,278.78923 Z" id="Combined-Shape" fill="url(#linearGradient-1)" opacity="0.35"></path>
                <g id="Group-12" transform="translate(1560.000000, 381.000000)" fill="url(#linearGradient-2)" opacity="0.523967634">
                    <path d="M4.97444148,34.9987175 C4.97444148,30.6461117 5.90906801,26.5139419 7.57392161,22.779358 L21.8963116,62.0217459 C11.8807384,57.1545227 4.97444148,46.8830144 4.97444148,34.9987175 Z M55.2676889,33.4840427 C55.2676889,36.0547253 54.2801589,39.036621 52.9816212,43.1904337 L49.9869688,53.1982205 L39.1361632,20.9224066 C40.9428941,20.827018 42.5732804,20.6354392 42.5732804,20.6354392 C44.19004,20.444662 44.0000687,18.0671614 42.3801028,18.16255 C42.3801028,18.16255 37.5186021,18.5441043 34.3788661,18.5441043 C31.4282999,18.5441043 26.4706111,18.16255 26.4706111,18.16255 C24.8522484,18.0671614 24.6630787,20.5408522 26.2806399,20.6354392 C26.2806399,20.6354392 27.813235,20.827018 29.4291931,20.9224066 L34.1079367,33.7381451 L27.5366946,53.4451086 L16.6033276,20.9224066 C18.4116616,20.827018 20.0388416,20.6354392 20.0388416,20.6354392 C21.6564028,20.444662 21.46563,18.0671614 19.8472672,18.16255 C19.8472672,18.16255 14.9849649,18.5441043 11.845229,18.5441043 C11.2817277,18.5441043 10.6180307,18.5296758 9.91265215,18.508033 C15.2815445,10.3567167 24.5091779,4.97487604 34.998477,4.97487604 C42.8153534,4.97487604 49.9324623,7.96318435 55.2741014,12.8576614 C55.1442476,12.8496456 55.0176001,12.8328123 54.8845401,12.8328123 C51.9363785,12.8328123 49.8426869,15.4026933 49.8426869,18.16255 C49.8426869,20.6354392 51.2702768,22.7299804 52.79165,25.2036713 C53.9346838,27.2036255 55.2676889,29.7735065 55.2676889,33.4840427 Z M35.5259879,37.6258316 L44.7552245,62.9110241 C44.815342,63.0593173 44.8882845,63.1955867 44.9692427,63.3246419 C41.8479428,64.4220115 38.4949902,65.0264065 34.9985572,65.0264065 C32.0519988,65.0264065 29.2072393,64.5943523 26.5171822,63.803188 L35.5259879,37.6258316 Z M61.3443644,20.5944782 C63.689748,24.8709334 65.022753,29.7790374 65.022753,34.9989579 C65.022753,46.0752574 59.01902,55.7471801 50.0927756,60.9526721 L59.2634978,34.4362454 C60.977247,30.1533775 61.5463592,26.7274039 61.5463592,23.6821831 C61.5463592,22.5767976 61.4734166,21.5507689 61.3443644,20.5944782 Z M34.9987977,68.3952271 C53.4115815,68.3952271 68.3920576,53.4144079 68.3920576,34.9987976 C68.3920576,16.5855921 53.4115815,1.60477287 34.9987977,1.60477287 C16.5860138,1.60477287 1.60473611,16.5855921 1.60473611,34.9987976 C1.60473611,53.4144079 16.5860138,68.3952271 34.9987977,68.3952271 Z M34.9987977,-1.20792265e-13 C54.2965109,-1.20792265e-13 70,15.7006424 70,34.9987976 C70,54.3001592 54.2965109,70 34.9987977,70 C15.7002828,70 -2.84217094e-14,54.3001592 -2.84217094e-14,34.9987976 C-2.84217094e-14,15.7006424 15.7002828,-1.20792265e-13 34.9987977,-1.20792265e-13 Z" id="Combined-Shape"></path>
                </g>
                <path d="M5,222 L200,222 C202.761424,222 205,224.238576 205,227 L205,746 L0,746 L0,227 C-3.38176876e-16,224.238576 2.23857625,222 5,222 Z" id="Rectangle" fill="url(#linearGradient-3)"></path>
                <g id="Group-2" transform="translate(1750.000000, 545.000000) scale(-1, 1) translate(-1750.000000, -545.000000) translate(1557.000000, 344.000000)">
                    <path d="M5,0 L152,0 C154.761424,-5.07265313e-16 157,2.23857625 157,5 L157,402 L0,402 L0,5 C-3.38176876e-16,2.23857625 2.23857625,5.07265313e-16 5,0 Z" id="Rectangle-Copy-10" fill="url(#linearGradient-4)"></path>
                    <path d="M139,77 L259,77 C261.761424,77 264,79.2385763 264,82 L264,402 L134,402 L134,82 C134,79.2385763 136.238576,77 139,77 Z" id="Rectangle-Copy-193" fill="url(#linearGradient-5)" opacity="0.8"></path>
                    <path d="M243,155 L333,155 C335.761424,155 338,157.238576 338,160 L338,402 L238,402 L238,160 C238,157.238576 240.238576,155 243,155 Z" id="Rectangle-Copy-194" fill="url(#linearGradient-6)" opacity="0.6"></path>
                    <path d="M302,287 L381,287 C383.761424,287 386,289.238576 386,292 L386,402 L297,402 L297,292 C297,289.238576 299.238576,287 302,287 Z" id="Rectangle-Copy-205" fill="url(#linearGradient-7)" opacity="0.75"></path>
                    <rect id="Rectangle-Copy-11" fill="#FFFFFF" opacity="0.5" x="39" y="35" width="27" height="27" rx="5"></rect>
                    <rect id="Rectangle-Copy-206" fill="url(#linearGradient-8)" opacity="0.5" x="171" y="111" width="53" height="14" rx="5"></rect>
                    <rect id="Rectangle-Copy-207" fill="url(#linearGradient-8)" opacity="0.5" x="171" y="139" width="53" height="14" rx="5"></rect>
                    <rect id="Rectangle-Copy-208" fill="url(#linearGradient-8)" opacity="0.276134673" x="171" y="166" width="53" height="14" rx="5"></rect>
                    <rect id="Rectangle-Copy-209" fill="#FFFFFF" opacity="0.5" x="39" y="89" width="27" height="27" rx="5"></rect>
                    <rect id="Rectangle-Copy-210" fill="#FFFFFF" opacity="0.5" x="86" y="35" width="27" height="27" rx="5"></rect>
                    <rect id="Rectangle-Copy-211" fill="#FFFFFF" opacity="0.182942708" x="86" y="89" width="27" height="27" rx="5"></rect>
                    <rect id="Rectangle-Copy-212" fill="#FFFFFF" opacity="0.187174479" x="39" y="143" width="27" height="27" rx="5"></rect>
                    <rect id="Rectangle-Copy-213" fill="#FFFFFF" opacity="0.187174479" x="86" y="143" width="27" height="27" rx="5"></rect>
                </g>
                <path d="M179,322 L338,322 C340.761424,322 343,324.238576 343,327 L343,746 L174,746 L174,327 C174,324.238576 176.238576,322 179,322 Z" id="Rectangle-Copy-191" fill="url(#linearGradient-9)" opacity="0.81"></path>
                <path d="M315,425 L435,425 C437.761424,425 440,427.238576 440,430 L440,746 L310,746 L310,430 C310,427.238576 312.238576,425 315,425 Z" id="Rectangle-Copy-192" fill="url(#linearGradient-10)" opacity="0.6"></path>
                <path d="M392,597 L498,597 C500.761424,597 503,599.238576 503,602 L503,746 L387,746 L387,602 C387,599.238576 389.238576,597 392,597 Z" id="Rectangle-Copy-195" fill="url(#linearGradient-11)" opacity="0.75"></path>
                <rect id="Rectangle" fill="#FFFFFF" opacity="0.5" x="50" y="268" width="35" height="36" rx="5"></rect>
                <rect id="Rectangle-Copy-201" fill="url(#linearGradient-12)" opacity="0.5" x="222" y="367" width="69" height="18" rx="5"></rect>
                <rect id="Rectangle-Copy-202" fill="url(#linearGradient-12)" opacity="0.5" x="222" y="403" width="69" height="18" rx="5"></rect>
                <rect id="Rectangle-Copy-203" fill="url(#linearGradient-12)" opacity="0.276134673" x="222" y="439" width="69" height="18" rx="5"></rect>
                <rect id="Rectangle-Copy-204" fill="url(#linearGradient-12)" opacity="0.266415551" x="222" y="475" width="69" height="18" rx="5"></rect>
                <rect id="Rectangle-Copy-197" fill="#FFFFFF" opacity="0.5" x="50" y="338" width="35" height="35" rx="5"></rect>
                <rect id="Rectangle-Copy-196" fill="#FFFFFF" opacity="0.5" x="112" y="268" width="35" height="36" rx="5"></rect>
                <rect id="Rectangle-Copy-198" fill="#FFFFFF" opacity="0.182942708" x="112" y="338" width="35" height="35" rx="5"></rect>
                <rect id="Rectangle-Copy-200" fill="#FFFFFF" opacity="0.187174479" x="50" y="408" width="35" height="35" rx="5"></rect>
                <rect id="Rectangle-Copy-199" fill="#FFFFFF" opacity="0.187174479" x="112" y="408" width="35" height="35" rx="5"></rect>
                <path d="M260,737.023779 C319.486082,685.562975 333.649434,645.721715 302.490058,617.5 C257.167329,568.762425 261.42441,528.262425 315.261299,496 C316.693565,496.125162 316.693565,497.145978 315.261299,499.062448 C313.112899,501.937152 270.052661,551.507502 360.559805,595.085151 C420.8979,624.136917 446.864047,672.108533 438.458245,739 L260,737.023779 Z" id="Path-10" fill="url(#linearGradient-13)" opacity="0.14"></path>
                <g id="Group-44" transform="translate(165.000000, 582.000000)">
                    <path d="M185,168 C185,172.418098 149.854426,176 106.5,176 C63.1455739,176 28,172.418098 28,168 C28,163.581902 63.1455739,160 106.5,160 C149.854426,160 185,163.581902 185,168" id="Fill-1" fill="#DCEAF8"></path>
                    <path d="M35,162.501174 C35,163.882104 28.5076557,165 20.4992815,165 C12.4909073,165 6,163.882104 6,162.501174 C6,161.120244 12.4909073,160 20.4992815,160 C28.5076557,160 35,161.120244 35,162.501174" id="Fill-3" fill="#DCEAF8"></path>
                    <path d="M55,178.500705 C55,179.329263 50.0747733,180 43.9994549,180 C37.9241366,180 33,179.329263 33,178.500705 C33,177.672147 37.9241366,177 43.9994549,177 C50.0747733,177 55,177.672147 55,178.500705" id="Fill-5" fill="#DCEAF8"></path>
                    <g id="Group-9" transform="translate(168.000000, 151.000000)">
                        <mask id="mask-15" fill="white">
                            <use xlink:href="#path-14"></use>
                        </mask>
                        <g id="Clip-8"></g>
                        <path d="M0.88055,5.46953 C0.88055,5.46953 13.55035,10.39643 20.35385,10.63183 C20.35385,10.63183 28.33105,9.92783 7.68515,0.54263 C7.68515,0.54263 5.48515,2.63153 0.64625,2.18493 L0.88055,5.46953 Z" id="Fill-7" fill="url(#linearGradient-16)" mask="url(#mask-15)"></path>
                    </g>
                    <path d="M132.874629,166.715803 C132.874629,166.715803 146.496936,168.854323 153.290236,167.612061 C153.290236,167.612061 162.124427,165.899906 139.631106,161.071493 C139.631106,161.071493 136.27909,161.430889 131,160 L132.874629,166.715803 Z" id="Fill-10" fill="url(#linearGradient-17)"></path>
                    <path d="M132,117.800952 C132,117.800952 144.840083,132.295027 141.795108,142.825202 C138.749035,153.355376 132,160.374761 132,160.374761 C132,160.374761 136.873937,162.714922 141.326059,161.779077 C141.326059,161.779077 155.427192,150.215414 153.881636,123.23719 C153.881636,123.23719 146.565788,116.191474 137.619802,115 L135.702962,118.020376 L132,117.800952 Z" id="Fill-12" fill="url(#linearGradient-18)"></path>
                    <path d="M135.667167,117.611431 C135.667167,117.611431 129.139669,116.016961 114.918423,121.256391 C100.698271,126.494754 66.9087398,135.60662 63.2886672,108.044612 C63.2886672,108.044612 64.3314055,95.5163289 62,88 L79.9495269,100.072262 C79.9495269,100.072262 98.8324904,104.628196 113.98608,100.072262 C129.139669,95.5173969 134.502011,95.7438052 138.464198,97.1107988 C138.464198,97.1107988 143.360914,107.589659 135.667167,117.611431" id="Fill-14" fill="url(#linearGradient-19)"></path>
                    <path d="M92.2436097,7.96906877 C92.2436097,7.96906877 96.1954879,21.6175179 92.2436097,29.7139636 C92.2436097,29.7139636 93.4121523,48.2202802 74.3303193,45.212719 C74.3303193,45.212719 76.4240947,54.0033007 79.6820485,54.4664196 C79.6820485,54.4664196 53.6184184,62.3318482 42.4479795,42.4372596 C42.4479795,42.4372596 39.1900257,35.4969842 42.4479795,30.6391167 C45.7059332,25.7812493 49.8956661,26.4753853 49.8956661,26.4753853 C49.8956661,26.4753853 47.8007997,16.2965316 53.3860191,9.58835791 C58.9701475,2.88018421 85.9557371,-7.29866951 92.2436097,7.96906877" id="Fill-16" fill="url(#linearGradient-20)"></path>
                    <path d="M88.6300627,13 C88.6300627,13 97.778063,37.6515114 85.929546,43.5636186 C78.5052348,47.2676417 74.6802061,45.4156301 74.6802061,45.4156301 C74.6802061,45.4156301 73.1052563,53.0570776 76.2562108,59.3089736 C76.2562108,59.3089736 71.3056151,64.8650082 65.9056366,55.8350949 C65.9056366,55.8350949 68.8308447,47.2676417 67.9299692,41.0168313 C67.9299692,41.0168313 66.3560744,38.7012741 65.9056366,35.4597111 C65.9056366,35.4597111 62.7557371,30.1338208 64.5553783,27.1245735 C66.3560744,24.1142405 69.7306653,25.503792 70.1811031,27.8182636 C70.1811031,27.8182636 82.554955,29.6713608 88.6300627,13" id="Fill-18" fill="url(#linearGradient-21)"></path>
                    <polygon id="Fill-20" fill="url(#linearGradient-22)" points="87 101 123.217905 97.1261334 135 61 131.567858 61 121.09102 93.4958722 87 97.4152118"></polygon>
                    <path d="M65.6910582,55 C65.6910582,55 56.5491952,55.9483035 57.0173887,65.1837138 C57.4866812,74.4213448 60.0650427,79.6314621 60.0650427,79.6314621 C60.0650427,79.6314621 65.6910582,75.1320173 73.4272416,75.1320173 C73.4272416,75.1320173 76.2396998,93.6050586 80.4589366,100 C80.4589366,100 79.5214506,87.684269 80.4589366,81.2893276 C80.4589366,81.2893276 87.7258275,77.7370759 85.6156595,71.1056138 C83.5065906,64.4741518 76.4748956,58.5533621 76.4748956,58.5533621 C76.4748956,58.5533621 71.2577252,63.7690315 65.6910582,55" id="Fill-22" fill="url(#linearGradient-23)"></path>
                    <path d="M86.4412603,111.266209 C86.4412603,111.266209 71.5773457,119.556468 61,80.4061027 C61,80.4061027 65.8288586,75.5699383 74.107672,76.0309882 C74.107672,76.0309882 77.7861863,95.3756459 81.0054253,100.21181 C84.2246644,105.047975 95.2623635,102.744885 96.6423454,99.0608053 C98.0212492,95.3756459 95.4930792,89.6184615 99.6308687,87.5453569 C103.770814,85.473332 107.909682,85.0122821 108.829311,87.3153718 C109.748939,89.6184615 106.760416,92.8544483 104.459727,94.0000545 C102.161195,95.1456608 103.080823,100.67178 101.241566,102.5149 C99.4012311,104.35694 91.145058,110.622683 86.4412603,111.266209" id="Fill-24" fill="url(#linearGradient-24)"></path>
                    <path d="M137,114.866327 C137,114.866327 148.120925,116.105561 156.776942,127.426217 C165.432958,138.746873 168.165931,152.901774 168.165931,152.901774 C168.165931,152.901774 172.949435,153.599183 174.999966,151.277387 C174.999966,151.277387 175.227447,110.306512 138.553918,99 C138.553918,99 140.914164,106.069834 137,114.866327" id="Fill-26" fill="url(#linearGradient-25)"></path>
                    <g id="Fill-28">
                        <use fill="#FFFFFF" xlink:href="#path-27"></use>
                        <use fill="url(#linearGradient-26)" xlink:href="#path-27"></use>
                    </g>
                    <polygon id="Fill-30" fill="url(#linearGradient-28)" points="57 168 65.086402 168 72 154 64.4994595 154"></polygon>
                    <polygon id="Fill-32" fill="url(#linearGradient-29)" points="123 168 114.986074 168 107 152.758643 113.906267 152"></polygon>
                    <path d="M90,27 C90,27 91.7153802,29.6868858 94.0016603,30.761237 C96.2879404,31.836596 94.1450554,34.2009748 92.5717301,33.9863062 L91.0010851,33.7706297 L90,27 Z" id="Fill-34" fill="url(#linearGradient-30)"></path>
                    <path d="M23.978429,161.595283 C23.978429,161.595283 30.4051217,150.944489 24.5130992,145.207513 C20.1814188,142.005606 15.2415777,147.609216 12.5117776,144.407309 C9.78197758,141.205403 22.26152,130.66502 18.2312573,125.327052 C14.2020596,119.990177 6.1425992,119.590076 1.46263765,124.126747 C-3.21732389,128.663419 4.32237747,154.100482 10.1717969,161.595283 C10.1717969,161.595283 17.8957571,162.505897 23.978429,161.595283" id="Fill-40" fill="url(#linearGradient-31)"></path>
                    <path d="M17,162 C14.6147108,159.305435 12.5657423,156.281522 10.8417112,153.061957 C9.1135407,149.847826 7.79102462,146.347826 7.21979702,142.66087 C6.91038207,140.819565 6.9652282,138.930435 7.15356774,137.071739 C7.44849503,135.251087 7.73514366,133.421739 8.24531614,131.647826 C8.7327223,129.871739 9.32464655,128.121739 10.0997362,126.458696 C10.9017314,124.825 11.825837,123.191304 13.173189,122 C11.9375989,123.304348 11.0952451,124.942391 10.4029421,126.607609 C9.69925595,128.276087 9.17149132,130.020652 8.75134928,131.790217 C8.32810275,133.559783 8.02800129,135.359783 7.76722347,137.16413 C7.60889408,138.955435 7.57474461,140.769565 7.89243822,142.553261 C8.39122754,146.13913 9.69201212,149.572826 11.3011768,152.802174 C12.0824754,154.433696 12.9972675,155.994565 13.9451741,157.530435 C14.8848021,159.075 15.9134258,160.558696 17,162" id="Fill-42" fill="url(#linearGradient-32)"></path>
                </g>
                <g id="Shape" fill-rule="nonzero">
                    <use fill="black" fill-opacity="1" filter="url(#filter-34)" xlink:href="#path-33"></use>
                    <use fill="#FFFFFF" xlink:href="#path-33"></use>
                </g>
            </g>
        </g>
    </g>
</svg>