<?xml version="1.0" encoding="UTF-8"?>
<svg width="729px" height="974px" viewBox="0 0 729 974" version="1.1" xmlns="http://www.w3.org/2000/svg" xmlns:xlink="http://www.w3.org/1999/xlink">
    <!-- Generator: Sketch 54.1 (76490) - https://sketchapp.com -->
    <title>Logo</title>
    <desc>Created with Sketch.</desc>
    <defs>
        <linearGradient x1="30.1538382%" y1="102.781104%" x2="23.0368467%" y2="28.8636841%" id="linearGradient-1">
            <stop stop-color="#F5F7F9" stop-opacity="0" offset="0%"></stop>
            <stop stop-color="#000000" offset="100%"></stop>
        </linearGradient>
        <linearGradient x1="36.3583713%" y1="112.837559%" x2="31.4663748%" y2="24.8365534%" id="linearGradient-2">
            <stop stop-color="#F5F7F9" stop-opacity="0" offset="0%"></stop>
            <stop stop-color="#000000" offset="100%"></stop>
        </linearGradient>
        <linearGradient x1="30.1538382%" y1="98.313295%" x2="23.0368467%" y2="30.6528288%" id="linearGradient-3">
            <stop stop-color="#F5F7F9" stop-opacity="0" offset="0%"></stop>
            <stop stop-color="#000000" offset="100%"></stop>
        </linearGradient>
    </defs>
    <g id="Page-1" stroke="none" stroke-width="1" fill="none" fill-rule="evenodd" opacity="0.8">
        <g id="Home-Page-Design---WeDevs-U3" transform="translate(-1192.000000, -1297.000000)">
            <g id="Logo" transform="translate(1192.000000, 1297.000000)">
                <g id="Group-18" opacity="0.03">
                    <path d="M851.23962,135.25321 C775.496877,-7.72627773 553.414837,0.906075447 553.414837,0.906075447 C353.76015,2.61945022 302.107459,33.6348077 302.107459,33.6348077 C168.557314,89.652341 155.119437,209.086567 157.201899,267.66325 C172.335183,262.621344 187.555691,258.136013 202.612655,253.967165 C203.855591,253.617942 205.147589,253.312372 206.401428,252.968606 C208.363957,110.229208 335.246953,72.3985478 335.246953,72.3985478 C468.219242,45.241012 539.23556,162.841818 539.23556,162.841818 C622.752101,268.683635 625.739507,532.259607 624.087711,624.214358 C655.820726,633.867097 691.876758,642.783194 727.927338,647.541356 C918.243654,287.989113 851.23962,135.25321 851.23962,135.25321" id="Fill-12" fill="url(#linearGradient-1)"></path>
                    <path d="M462.790667,889.948964 C461.972947,889.212322 496.156441,885.973673 495.349623,885.247944 C366.787574,954.415902 230.656114,858.104202 230.656114,858.104202 C114.458002,728.864452 253.901188,584.13885 253.901188,584.13885 L255.629304,581.536048 C255.629304,581.536048 448.374294,412.514748 604.433565,326.556809 C597.204914,290.625048 588.291758,259.60969 577.906705,233.914525 C466.571306,238.820015 318.244904,255.912991 211.3361,285.515087 C159.083747,299.991467 103.516899,318.543933 60.7773638,353.171564 C1.43264667,401.260647 -7.75853403,492.244121 5.03061777,562.639816 C21.4886098,653.181305 67.3245809,734.135535 125.022954,804.78769 C158.871139,846.225168 196.835186,884.525096 237.077947,919.736585 C308.323227,982.07287 422.139045,973.064011 494.561842,917.75038 C483.36452,908.2286 507.702657,896.232096 497.753722,887.392391" id="Fill-14" fill="url(#linearGradient-2)"></path>
                    <path d="M888.264923,302.816898 C885.948048,317.675241 883.064219,332.84461 879.646147,348.319549 C919.965229,374.642224 983.169588,432.062105 974.300044,529.855426 C974.300044,529.855426 954.309498,663.127609 816.185569,681.652792 L816.185569,681.663705 C816.136505,681.669162 816.087442,681.669162 816.038379,681.674619 C808.695247,682.656808 800.992318,683.295231 792.962301,683.595344 C664.640117,689.19928 506.356646,615.158572 506.356646,615.158572 C441.653132,587.258938 367.253841,533.363955 333.732744,514.123957 C297.534974,547.491112 266.67732,571.987231 261.413322,576.64641 C256.149323,581.305589 254.588108,583.782241 249.230396,588.917206 C305.08072,679.33865 395.719035,786.938035 475.365031,857.355556 C531.351642,906.84153 614.257618,985.31846 694.476019,971.491416 C757.549543,960.621854 820.737547,910.175517 861.558165,862.386548 C1031.98206,655.668427 1013.0273,517.790867 1013.0273,517.790867 C1016.65252,392.130651 936.49409,329.215966 888.264923,302.816898 Z" id="Fill-16" fill="url(#linearGradient-3)"></path>
                </g>
            </g>
        </g>
    </g>
</svg>