<?xml version="1.0" encoding="UTF-8"?>
<svg width="1921px" height="1279px" viewBox="0 0 1921 1279" version="1.1" xmlns="http://www.w3.org/2000/svg" xmlns:xlink="http://www.w3.org/1999/xlink">
    <!-- Generator: Sketch 54.1 (76490) - https://sketchapp.com -->
    <title>Group 21</title>
    <desc>Created with Sketch.</desc>
    <defs>
        <linearGradient x1="0%" y1="53.0611705%" x2="99.2158517%" y2="48.5647861%" id="linearGradient-1">
            <stop stop-color="#CE9FFC" stop-opacity="0" offset="0%"></stop>
            <stop stop-color="#7367F0" offset="100%"></stop>
        </linearGradient>
        <linearGradient x1="50%" y1="98.7357475%" x2="50%" y2="0%" id="linearGradient-2">
            <stop stop-color="#FFFFFF" stop-opacity="0.141144012" offset="0%"></stop>
            <stop stop-color="#FFFFFF" offset="100%"></stop>
        </linearGradient>
        <path d="M283.5,56.7735027 L456.190652,156.476497 C462.378674,160.049153 466.190652,166.651694 466.190652,173.797005 L466.190652,373.202995 C466.190652,380.348306 462.378674,386.950847 456.190652,390.523503 L283.5,490.226497 C277.311978,493.799153 269.688022,493.799153 263.5,490.226497 L85.8093477,387.636751 C82.7153369,385.850423 80.8093477,382.549153 80.8093477,378.976497 L80.8093477,168.023503 C80.8093477,164.450847 82.7153369,161.149577 85.8093477,159.363249 L263.5,56.7735027 C269.688022,53.2008468 277.311978,53.2008468 283.5,56.7735027 Z" id="path-3"></path>
        <filter x="-11.4%" y="-53.6%" width="154.2%" height="171.0%" filterUnits="objectBoundingBox" id="filter-4">
            <feOffset dx="73" dy="-94" in="SourceAlpha" result="shadowOffsetOuter1"></feOffset>
            <feGaussianBlur stdDeviation="33.5" in="shadowOffsetOuter1" result="shadowBlurOuter1"></feGaussianBlur>
            <feColorMatrix values="0 0 0 0 0.0637324715   0 0 0 0 0.114798962   0 0 0 0 0.313881803  0 0 0 0.02 0" type="matrix" in="shadowBlurOuter1"></feColorMatrix>
        </filter>
        <linearGradient x1="50%" y1="137.214231%" x2="50%" y2="0%" id="linearGradient-5">
            <stop stop-color="#FFFFFF" stop-opacity="0.141144012" offset="0%"></stop>
            <stop stop-color="#D5D3E9" offset="100%"></stop>
        </linearGradient>
        <path d="M583.973279,303.416654 L614.047308,320.779903 C615.594313,321.673067 616.547308,323.323702 616.547308,325.11003 L616.547308,359.836527 C616.547308,361.622855 615.594313,363.27349 614.047308,364.166654 L583.973279,381.529903 C582.426273,382.423067 580.520284,382.423067 578.973279,381.529903 L548.89925,364.166654 C547.352244,363.27349 546.39925,361.622855 546.39925,359.836527 L546.39925,325.11003 C546.39925,323.323702 547.352244,321.673067 548.89925,320.779903 L578.973279,303.416654 C580.520284,302.52349 582.426273,302.52349 583.973279,303.416654 Z" id="path-6"></path>
        <filter x="-92.7%" y="-297.2%" width="458.2%" height="495.6%" filterUnits="objectBoundingBox" id="filter-7">
            <feOffset dx="73" dy="-94" in="SourceAlpha" result="shadowOffsetOuter1"></feOffset>
            <feGaussianBlur stdDeviation="33.5" in="shadowOffsetOuter1" result="shadowBlurOuter1"></feGaussianBlur>
            <feComposite in="shadowBlurOuter1" in2="SourceAlpha" operator="out" result="shadowBlurOuter1"></feComposite>
            <feColorMatrix values="0 0 0 0 0.0637324715   0 0 0 0 0.114798962   0 0 0 0 0.313881803  0 0 0 0.02 0" type="matrix" in="shadowBlurOuter1"></feColorMatrix>
        </filter>
        <path d="M1687.95233,567.608125 L1703.73694,576.721374 C1705.28394,577.614538 1706.23694,579.265173 1706.23694,581.051501 L1706.23694,599.277998 C1706.23694,601.064326 1705.28394,602.714961 1703.73694,603.608125 L1687.95233,612.721374 C1686.40532,613.614538 1684.49933,613.614538 1682.95233,612.721374 L1667.16772,603.608125 C1665.62071,602.714961 1664.66772,601.064326 1664.66772,599.277998 L1664.66772,581.051501 C1664.66772,579.265173 1665.62071,577.614538 1667.16772,576.721374 L1682.95233,567.608125 C1684.49933,566.714961 1686.40532,566.714961 1687.95233,567.608125 Z" id="path-8"></path>
        <filter x="-161.0%" y="-501.5%" width="713.7%" height="767.6%" filterUnits="objectBoundingBox" id="filter-9">
            <feOffset dx="73" dy="-94" in="SourceAlpha" result="shadowOffsetOuter1"></feOffset>
            <feGaussianBlur stdDeviation="33.5" in="shadowOffsetOuter1" result="shadowBlurOuter1"></feGaussianBlur>
            <feComposite in="shadowBlurOuter1" in2="SourceAlpha" operator="out" result="shadowBlurOuter1"></feComposite>
            <feColorMatrix values="0 0 0 0 0.0637324715   0 0 0 0 0.114798962   0 0 0 0 0.313881803  0 0 0 0.02 0" type="matrix" in="shadowBlurOuter1"></feColorMatrix>
        </filter>
        <linearGradient x1="22.3140592%" y1="118.013652%" x2="50%" y2="0%" id="linearGradient-10">
            <stop stop-color="#FFFFFF" stop-opacity="0.141144012" offset="0%"></stop>
            <stop stop-color="#D3D7E9" offset="100%"></stop>
        </linearGradient>
        <path d="M521.892072,483.407982 L577.51385,515.521231 C579.060855,516.414395 580.01385,518.06503 580.01385,519.851358 L580.01385,584.077855 C580.01385,585.864183 579.060855,587.514818 577.51385,588.407982 L521.892072,620.521231 C520.345066,621.414395 518.439077,621.414395 516.892072,620.521231 L461.270294,588.407982 C459.723288,587.514818 458.770294,585.864183 458.770294,584.077855 L458.770294,519.851358 C458.770294,518.06503 459.723288,516.414395 461.270294,515.521231 L516.892072,483.407982 C518.439077,482.514818 520.345066,482.514818 521.892072,483.407982 Z" id="path-11"></path>
        <filter x="-50.8%" y="-171.9%" width="301.6%" height="328.9%" filterUnits="objectBoundingBox" id="filter-12">
            <feOffset dx="73" dy="-94" in="SourceAlpha" result="shadowOffsetOuter1"></feOffset>
            <feGaussianBlur stdDeviation="33.5" in="shadowOffsetOuter1" result="shadowBlurOuter1"></feGaussianBlur>
            <feColorMatrix values="0 0 0 0 0.0637324715   0 0 0 0 0.114798962   0 0 0 0 0.313881803  0 0 0 0.02 0" type="matrix" in="shadowBlurOuter1"></feColorMatrix>
        </filter>
        <linearGradient x1="-41.7200331%" y1="50%" x2="86.8059436%" y2="50%" id="linearGradient-13">
            <stop stop-color="#FFFFFF" stop-opacity="0.141144012" offset="0%"></stop>
            <stop stop-color="#D3D7E9" offset="100%"></stop>
        </linearGradient>
        <path d="M1702.32743,747.270803 L1754.4851,777.384052 C1756.03211,778.277216 1756.9851,779.927851 1756.9851,781.714179 L1756.9851,841.940676 C1756.9851,843.727004 1756.03211,845.377639 1754.4851,846.270803 L1702.32743,876.384052 C1700.78042,877.277216 1698.87443,877.277216 1697.32743,876.384052 L1645.16975,846.270803 C1643.62275,845.377639 1642.66975,843.727004 1642.66975,841.940676 L1642.66975,781.714179 C1642.66975,779.927851 1643.62275,778.277216 1645.16975,777.384052 L1697.32743,747.270803 C1698.87443,746.377639 1700.78042,746.377639 1702.32743,747.270803 Z" id="path-14"></path>
        <filter x="-54.3%" y="-182.4%" width="314.6%" height="342.8%" filterUnits="objectBoundingBox" id="filter-15">
            <feOffset dx="73" dy="-94" in="SourceAlpha" result="shadowOffsetOuter1"></feOffset>
            <feGaussianBlur stdDeviation="33.5" in="shadowOffsetOuter1" result="shadowBlurOuter1"></feGaussianBlur>
            <feColorMatrix values="0 0 0 0 0.0637324715   0 0 0 0 0.114798962   0 0 0 0 0.313881803  0 0 0 0.02 0" type="matrix" in="shadowBlurOuter1"></feColorMatrix>
        </filter>
        <linearGradient x1="66.2977543%" y1="120.084581%" x2="34.4708735%" y2="3.58423271%" id="linearGradient-16">
            <stop stop-color="#00EAEF" stop-opacity="0" offset="0%"></stop>
            <stop stop-color="#2400FF" offset="100%"></stop>
        </linearGradient>
        <linearGradient x1="19.4724383%" y1="30.2337389%" x2="82.4142836%" y2="100%" id="linearGradient-17">
            <stop stop-color="#72D0FF" stop-opacity="0" offset="0%"></stop>
            <stop stop-color="#349EFA" offset="100%"></stop>
        </linearGradient>
        <circle id="path-18" cx="1559.99427" cy="169.994266" r="59"></circle>
        <filter x="-92.8%" y="-57.2%" width="285.6%" height="285.6%" filterUnits="objectBoundingBox" id="filter-19">
            <feOffset dx="0" dy="42" in="SourceAlpha" result="shadowOffsetOuter1"></feOffset>
            <feGaussianBlur stdDeviation="29.5" in="shadowOffsetOuter1" result="shadowBlurOuter1"></feGaussianBlur>
            <feColorMatrix values="0 0 0 0 0.229355257   0 0 0 0 0.0671040332   0 0 0 0 0.385336947  0 0 0 0.1 0" type="matrix" in="shadowBlurOuter1"></feColorMatrix>
        </filter>
        <linearGradient x1="0.00079630498%" y1="50.0351114%" x2="100%" y2="50.0351114%" id="linearGradient-20">
            <stop stop-color="#147BC1" offset="0%"></stop>
            <stop stop-color="#1475B7" offset="23%"></stop>
            <stop stop-color="#13659E" offset="62%"></stop>
            <stop stop-color="#12527E" offset="100%"></stop>
        </linearGradient>
        <radialGradient cx="28.1321993%" cy="33.6801288%" fx="28.1321993%" fy="33.6801288%" r="55.6809466%" gradientTransform="translate(0.281322,0.336801),scale(1.000000,0.815609),translate(-0.281322,-0.336801)" id="radialGradient-21">
            <stop stop-color="#B8D435" offset="0%"></stop>
            <stop stop-color="#B2D236" offset="12%"></stop>
            <stop stop-color="#A1CC39" offset="29%"></stop>
            <stop stop-color="#86C23D" offset="47%"></stop>
            <stop stop-color="#60B543" offset="67%"></stop>
            <stop stop-color="#3FA948" offset="82%"></stop>
            <stop stop-color="#49A649" offset="100%"></stop>
        </radialGradient>
        <linearGradient x1="-0.00383194445%" y1="49.9889257%" x2="100%" y2="49.9889257%" id="linearGradient-22">
            <stop stop-color="#338A47" offset="0%"></stop>
            <stop stop-color="#256232" offset="42%"></stop>
            <stop stop-color="#1A4422" offset="79%"></stop>
            <stop stop-color="#16391C" offset="100%"></stop>
        </linearGradient>
        <radialGradient cx="69.7306467%" cy="60.4110744%" fx="69.7306467%" fy="60.4110744%" r="51.2442391%" gradientTransform="translate(0.697306,0.604111),scale(0.911280,1.000000),translate(-0.697306,-0.604111)" id="radialGradient-23">
            <stop stop-color="#FFC713" offset="0%"></stop>
            <stop stop-color="#FCBD15" offset="15%"></stop>
            <stop stop-color="#F5A41A" offset="39%"></stop>
            <stop stop-color="#E97A23" offset="70%"></stop>
            <stop stop-color="#E05B29" offset="90%"></stop>
            <stop stop-color="#DD5430" offset="100%"></stop>
        </radialGradient>
        <linearGradient x1="86.5932682%" y1="27.8960998%" x2="36.6813624%" y2="57.2685948%" id="linearGradient-24">
            <stop stop-color="#CA2027" offset="0%"></stop>
            <stop stop-color="#C73927" offset="60%"></stop>
            <stop stop-color="#C64427" offset="100%"></stop>
        </linearGradient>
        <radialGradient cx="69.3906777%" cy="32.9703413%" fx="69.3906777%" fy="32.9703413%" r="50.658216%" gradientTransform="translate(0.693907,0.329703),scale(0.964067,1.000000),translate(-0.693907,-0.329703)" id="radialGradient-25">
            <stop stop-color="#C7EAFB" offset="0%"></stop>
            <stop stop-color="#BDE4F8" offset="13%"></stop>
            <stop stop-color="#A4D4F0" offset="35%"></stop>
            <stop stop-color="#79BAE3" offset="62%"></stop>
            <stop stop-color="#4096D1" offset="94%"></stop>
            <stop stop-color="#358FCE" offset="100%"></stop>
        </radialGradient>
    </defs>
    <g id="Page-1" stroke="none" stroke-width="1" fill="none" fill-rule="evenodd">
        <g id="Home-Page-Design---WeDevs-U3" transform="translate(0.000000, -2236.000000)">
            <g id="Group-21" transform="translate(-157.994266, 2176.005734)">
                <polygon id="Rectangle" fill-opacity="0.08" fill="url(#linearGradient-1)" points="157.994266 234.544602 2078.99427 135.994266 2078.99427 1257.49427 157.994266 1339.99427"></polygon>
                <g id="Polygon" transform="translate(273.500000, 273.500000) scale(1, -1) rotate(-15.000000) translate(-273.500000, -273.500000) ">
                    <use fill="black" fill-opacity="1" filter="url(#filter-4)" xlink:href="#path-3"></use>
                    <use fill="url(#linearGradient-2)" fill-rule="evenodd" xlink:href="#path-3"></use>
                </g>
                <g id="Polygon-Copy-7" transform="translate(581.473279, 342.473279) scale(1, -1) rotate(151.000000) translate(-581.473279, -342.473279) ">
                    <use fill="black" fill-opacity="1" filter="url(#filter-7)" xlink:href="#path-6"></use>
                    <use fill-opacity="0.53" fill="url(#linearGradient-5)" fill-rule="evenodd" xlink:href="#path-6"></use>
                </g>
                <g id="Polygon-Copy-19" transform="translate(1685.452326, 590.164749) scale(1, -1) rotate(152.000000) translate(-1685.452326, -590.164749) ">
                    <use fill="black" fill-opacity="1" filter="url(#filter-9)" xlink:href="#path-8"></use>
                    <use fill-opacity="0.7" fill="url(#linearGradient-5)" fill-rule="evenodd" xlink:href="#path-8"></use>
                </g>
                <g id="Polygon-Copy-8" opacity="0.4" transform="translate(519.392072, 551.964607) scale(1, -1) rotate(130.000000) translate(-519.392072, -551.964607) ">
                    <use fill="black" fill-opacity="1" filter="url(#filter-12)" xlink:href="#path-11"></use>
                    <use fill="url(#linearGradient-10)" fill-rule="evenodd" xlink:href="#path-11"></use>
                </g>
                <g id="Polygon-Copy-18" opacity="0.401269531" transform="translate(1699.827428, 811.827428) scale(1, -1) rotate(75.000000) translate(-1699.827428, -811.827428) ">
                    <use fill="black" fill-opacity="1" filter="url(#filter-15)" xlink:href="#path-14"></use>
                    <use fill="url(#linearGradient-13)" fill-rule="evenodd" xlink:href="#path-14"></use>
                </g>
                <path d="M2023.15153,424.826133 L2200.64603,527.30263 C2203.74004,529.088958 2205.64603,532.390228 2205.64603,535.962884 L2205.64603,740.915879 C2205.64603,744.488534 2203.74004,747.789805 2200.64603,749.576133 L2023.15153,852.05263 C2020.05752,853.838958 2016.24554,853.838958 2013.15153,852.05263 L1835.65703,749.576133 C1832.56302,747.789805 1830.65703,744.488534 1830.65703,740.915879 L1830.65703,535.962884 C1830.65703,532.390228 1832.56302,529.088958 1835.65703,527.30263 L2013.15153,424.826133 C2016.24554,423.039805 2020.05752,423.039805 2023.15153,424.826133 Z" id="Polygon-Copy-14" fill="url(#linearGradient-16)" opacity="0.07" transform="translate(2018.151531, 638.439381) rotate(14.000000) translate(-2018.151531, -638.439381) "></path>
                <path d="M1693.09643,1106.11716 L1721.17046,1122.32571 C1723.33627,1123.57614 1724.67046,1125.88703 1724.67046,1128.38789 L1724.67046,1160.80498 C1724.67046,1163.30584 1723.33627,1165.61673 1721.17046,1166.86716 L1693.09643,1183.07571 C1690.93063,1184.32614 1688.26224,1184.32614 1686.09643,1183.07571 L1658.0224,1166.86716 C1655.8566,1165.61673 1654.5224,1163.30584 1654.5224,1160.80498 L1654.5224,1128.38789 C1654.5224,1125.88703 1655.8566,1123.57614 1658.0224,1122.32571 L1686.09643,1106.11716 C1688.26224,1104.86673 1690.93063,1104.86673 1693.09643,1106.11716 Z" id="Polygon-Copy-12" fill="url(#linearGradient-17)" opacity="0.161016555" transform="translate(1689.596433, 1144.596433) rotate(-15.000000) translate(-1689.596433, -1144.596433) "></path>
                <g id="Oval-Copy-2">
                    <use fill="black" fill-opacity="1" filter="url(#filter-19)" xlink:href="#path-18"></use>
                    <use fill="#FFFFFF" fill-rule="evenodd" xlink:href="#path-18"></use>
                </g>
                <g id="weDevs" transform="translate(1532.994266, 143.994266)" fill-rule="nonzero">
                    <path d="M11.0335135,16.0545833 C11.0335135,16.0545833 9.24567568,5.54291667 19.2356757,4.27680556 C19.2356757,4.27680556 27.5545946,3.14319444 30.6705405,13.3015278 C30.6486486,13.3015278 18.1702703,14.2069444 11.0335135,16.0545833 Z" id="Path" fill="url(#linearGradient-20)"></path>
                    <path d="M30.6486486,13.3015278 C30.6486486,13.3015278 3.30567568,14.0376389 0.926756757,22.8194444 C0.926756757,22.8194444 -5.02783784,34.8327778 13.2810811,50.6223611 C13.2810811,50.6223611 21.4321622,55.6131944 27.5691892,48.7747222 C27.5691892,48.7747222 17.0391892,38.4691667 13.5583784,31.8441667 C13.5583784,31.8441667 23.0813514,21.7226389 31.8745946,17.4679167 C31.5843702,16.0464224 31.1742288,14.6525529 30.6486486,13.3015278 Z" id="Path" fill="url(#radialGradient-21)"></path>
                    <path d="M13.4708108,32.0061111 C13.4708108,32.0061111 6.04945946,39.75 12.2302703,46.6915278 C12.2302703,46.6915278 18.2724324,52.6466667 25.6937838,47.5233333 C25.6937838,47.5233333 16.9005405,37.1294444 13.4708108,32.0061111 Z" id="Path" fill="url(#linearGradient-22)"></path>
                    <path d="M16.9954054,28.4948611 C16.9954054,28.4948611 30.2254054,36.7613889 37.9459459,36.5773611 C41.5393794,30.2117245 44.0364154,23.2773588 45.3308108,16.0693056 C45.3308108,16.0693056 54.1240541,18.8444444 53.8467568,28.4506944 C53.8467568,28.4506944 54.8537838,35.8118056 45.8197297,46.9197222 C45.8197297,46.9197222 39.8651351,53.9422222 33.9178378,52.7423611 C33.9178378,52.7423611 22.2859459,47.3393056 13.4854054,32.0061111 C14.5878575,30.7689279 15.7597841,29.596584 16.9954054,28.4948611 Z" id="Path" fill="url(#radialGradient-23)"></path>
                    <path d="M45.0535135,18.4027778 C45.0535135,18.4027778 52.4748649,21.4723611 51.8108108,29.0984722 C51.8108108,29.0984722 50.2564865,39.5586111 37.8948649,36.9233333 C37.872973,36.9233333 43.5502703,24.2475 45.0535135,18.4027778 Z" id="Path" fill="url(#linearGradient-24)"></path>
                    <path d="M8.50864865,16.8569444 C8.50864865,16.8569444 6.42162162,6.55875 16.0540541,2.49541667 C16.0540541,2.49541667 18.7832432,0.831805556 29.4008108,0.736111111 C29.4008108,0.736111111 41.2151351,0.272361111 45.2432432,7.93527778 C45.2432432,7.93527778 48.9940541,16.5477778 37.872973,36.9159722 L36.5886486,36.6656944 C36.5886486,36.6656944 35.6837838,36.50375 33.1078378,35.8780556 C33.1078378,35.8780556 34.0710811,16.3416667 28.6418919,9.41486111 C28.6418919,9.41486111 24.8691892,3.11375 17.7981081,4.56388889 C17.7981081,4.56388889 9.9972973,6.90472222 11.0335135,16.0472222 C11.0335135,16.0545833 10.7051351,16.1944444 8.50864865,16.8569444 Z" id="Path" fill="url(#radialGradient-25)"></path>
                </g>
            </g>
        </g>
    </g>
</svg>