<?xml version="1.0" encoding="UTF-8"?>
<svg width="363px" height="105px" viewBox="0 0 363 105" version="1.1" xmlns="http://www.w3.org/2000/svg" xmlns:xlink="http://www.w3.org/1999/xlink">
    <!-- Generator: Sketch 54.1 (76490) - https://sketchapp.com -->
    <title>Group 7</title>
    <desc>Created with Sketch.</desc>
    <defs>
        <linearGradient x1="-12.8689738%" y1="51.4473058%" x2="100%" y2="52.5627967%" id="linearGradient-1">
            <stop stop-color="#EEEAF5" offset="0%"></stop>
            <stop stop-color="#FFFFFF" offset="100%"></stop>
        </linearGradient>
        <path d="M5,0 L140,0 C142.761424,-5.07265313e-16 145,2.23857625 145,5 L145,78 C145,80.7614237 142.761424,83 140,83 L5,83 C2.23857625,83 3.38176876e-16,80.7614237 0,78 L0,5 C-3.38176876e-16,2.23857625 2.23857625,5.07265313e-16 5,0 Z" id="path-2"></path>
        <linearGradient x1="16.2365217%" y1="-7.26321745%" x2="66.8988527%" y2="92.370094%" id="linearGradient-4">
            <stop stop-color="#FFD1EE" offset="0%"></stop>
            <stop stop-color="#FF6BAF" offset="100%"></stop>
        </linearGradient>
        <linearGradient x1="7.54649533%" y1="69.0710034%" x2="83.7634783%" y2="83.7697165%" id="linearGradient-5">
            <stop stop-color="#EEEAF5" offset="0%"></stop>
            <stop stop-color="#FFFFFF" offset="100%"></stop>
        </linearGradient>
        <path d="M66.5556898,8.67322488 C63.6464436,8.74817141 61.2319874,11.2628249 60.4754247,14.0565556 L60.4754247,14.0565556 C59.7178705,16.8512724 60.299918,19.8333556 61.1903417,22.5866546 L61.1903417,22.5866546 C62.081757,25.3419259 63.2805568,28.0143615 63.7961696,30.8623298 L63.7961696,30.8623298 C64.4724156,34.598809 63.9984485,38.6942427 65.9587688,41.9494863 L65.9587688,41.9494863 C68.0608826,45.4374585 72.5070516,47.1168526 74.3166543,50.7635932 L74.3166543,50.7635932 C75.8367206,53.8275259 75.111888,57.4861001 75.6721211,60.8586942 L75.6721211,60.8586942 C76.4792535,65.7361358 80.2561174,70.006116 85.0185951,71.4212249 L85.0185951,71.4212249 C86.6626068,71.9093635 88.4702264,72.1884407 90.270905,72.1943576 L90.270905,72.1943576 L90.3918757,72.1943576 C93.7671566,72.1825239 97.1067412,71.2072328 99.2861969,68.8533199 L99.2861969,68.8533199 C105.131462,68.3365833 110.416493,63.8861397 111.895905,58.2385239 L111.895905,58.2385239 C113.374326,52.5918942 110.943013,46.1435338 106.093278,42.8557477 L106.093278,42.8557477 C104.056607,41.4731813 101.58464,40.5452249 100.183562,38.5275853 L100.183562,38.5275853 C97.9396542,35.2950229 99.3665135,30.6986308 97.7205187,27.128809 L97.7205187,27.128809 C96.1478996,23.7167694 92.2123856,22.1044328 88.5366611,21.2553675 L88.5366611,21.2553675 C84.859945,20.4082744 80.9125322,19.9329556 77.9160285,17.6530031 L77.9160285,17.6530031 C75.9338938,16.1432249 74.5744607,13.9855536 72.9185503,12.1276684 L72.9185503,12.1276684 C71.2943699,10.3052843 69.135737,8.6712526 66.6974833,8.6712526 L66.6974833,8.6712526 C66.6508798,8.6712526 66.6032848,8.67223874 66.5556898,8.67322488" id="path-6"></path>
        <filter x="-239.5%" y="-133.8%" width="578.9%" height="493.6%" filterUnits="objectBoundingBox" id="filter-7">
            <feOffset dx="0" dy="40" in="SourceAlpha" result="shadowOffsetOuter1"></feOffset>
            <feGaussianBlur stdDeviation="35" in="shadowOffsetOuter1" result="shadowBlurOuter1"></feGaussianBlur>
            <feColorMatrix values="0 0 0 0 0   0 0 0 0 0   0 0 0 0 0  0 0 0 0.03 0" type="matrix" in="shadowBlurOuter1"></feColorMatrix>
        </filter>
        <linearGradient x1="50%" y1="0%" x2="50%" y2="100%" id="linearGradient-8">
            <stop stop-color="#C2E998" offset="0%"></stop>
            <stop stop-color="#02CC87" offset="100%"></stop>
        </linearGradient>
        <linearGradient x1="30.1783265%" y1="0%" x2="69.8216735%" y2="100%" id="linearGradient-9">
            <stop stop-color="#CE9FFC" offset="0%"></stop>
            <stop stop-color="#7367F0" offset="100%"></stop>
        </linearGradient>
        <linearGradient x1="50%" y1="0%" x2="50%" y2="100%" id="linearGradient-10">
            <stop stop-color="#FFD1EE" offset="0%"></stop>
            <stop stop-color="#FF6BAF" offset="100%"></stop>
        </linearGradient>
    </defs>
    <g id="Page-1" stroke="none" stroke-width="1" fill="none" fill-rule="evenodd">
        <g id="Contact-Us-Page-Design---weDevs-2" transform="translate(-1168.000000, -516.000000)">
            <g id="Group-7" transform="translate(1168.000000, 516.000000)">
                <path d="M362.999998,99.9748744 C362.999998,102.750175 360.761422,105 358,105 L5,105 C2.23857624,105 0,102.750175 0,99.9748744 L0,80.8602441 C27.0201993,61.7089422 58.2662929,57.0252093 93.7382808,66.8090452 C165.703124,86.6582915 187.624999,5 281,5 C317.736825,5 344.296229,23.3613084 363,39.346558 L362.999998,99.9748744 Z" id="Path" fill="url(#linearGradient-1)"></path>
                <g id="Group-4" opacity="0.708682106" transform="translate(218.000000, 22.000000)">
                    <mask id="mask-3" fill="white">
                        <use xlink:href="#path-2"></use>
                    </mask>
                    <g id="Rectangle-2-Copy-103"></g>
                    <g id="Group-29" mask="url(#mask-3)">
                        <g transform="translate(80.059847, 66.966420) scale(-1, 1) rotate(44.000000) translate(-80.059847, -66.966420) translate(17.059847, 8.466420)">
                            <g id="Group-3" transform="translate(0.671795, 2.150321)">
                                <path d="M6.43028685,49.5778772 C3.52104065,49.6528238 1.10658445,52.1674772 0.350021782,54.9612079 L0.350021782,54.9612079 C-0.407532444,57.7559248 0.17451511,60.7380079 1.06493879,63.4913069 L1.06493879,63.4913069 C1.95635404,66.2465782 3.15515386,68.9190139 3.67076668,71.7669822 L3.67076668,71.7669822 C4.34701273,75.5034614 3.87304556,79.598895 5.83336585,82.8541386 L5.83336585,82.8541386 C7.93547967,86.3421109 12.3816487,88.021505 14.1912514,91.6682455 L14.1912514,91.6682455 C15.7113177,94.7321782 14.986485,98.3907525 15.5467182,101.763347 L15.5467182,101.763347 C16.3538506,106.640788 20.1307145,110.910768 24.8931922,112.325877 L24.8931922,112.325877 C26.5372039,112.814016 28.3448234,113.093093 30.1455021,113.09901 L30.1455021,113.09901 L30.2664728,113.09901 C33.6417536,113.087176 36.9813382,112.111885 39.160794,109.757972 L39.160794,109.757972 C45.0060586,109.241236 50.29109,104.790792 51.7705022,99.1431762 L51.7705022,99.1431762 C53.2489228,93.4965465 50.8176101,87.0481861 45.9678748,83.7604 L45.9678748,83.7604 C43.9312042,82.3778337 41.4592373,81.4498772 40.0581586,79.4322376 L40.0581586,79.4322376 C37.8142513,76.1996752 39.2411106,71.6032832 37.5951158,68.0334614 L37.5951158,68.0334614 C36.0224967,64.6214218 32.0869827,63.0090851 28.4112582,62.1600198 L28.4112582,62.1600198 C24.7345421,61.3129267 20.7871293,60.8376079 17.7906256,58.5576554 L17.7906256,58.5576554 C15.8084909,57.0478772 14.4490578,54.8902059 12.7931474,53.0323208 L12.7931474,53.0323208 C11.168967,51.2099366 9.0103341,49.575905 6.57208038,49.575905 L6.57208038,49.575905 C6.52547691,49.575905 6.47788188,49.5768911 6.43028685,49.5778772" id="Fill-1" fill="url(#linearGradient-4)" opacity="0.797316778"></path>
                                <g id="Fill-1-Copy" transform="translate(86.225870, 40.432805) scale(-1, 1) rotate(29.000000) translate(-86.225870, -40.432805) ">
                                    <use fill="black" fill-opacity="1" filter="url(#filter-7)" xlink:href="#path-6"></use>
                                    <use fill="url(#linearGradient-5)" fill-rule="evenodd" xlink:href="#path-6"></use>
                                </g>
                            </g>
                            <g id="Group-14" transform="translate(8.421941, 60.218683)">
                                <path d="M20.2974601,29.8478217 C19.5383775,28.7740078 18.7647115,27.6794968 17.979337,26.5683379 C12.9671304,19.4526367 8.45367052,12.9930495 5.20983771,8.30168465 C3.60573369,5.95898911 2.30444017,4.0603404 1.39205034,2.72919551 C0.958615697,2.07706394 0.618201272,1.56332365 0.375754951,1.19793085 C0.149141859,0.844485491 0.037319679,0.653326314 0.0521633313,0.642374486 C0.0679965604,0.632418279 0.208516469,0.80067818 0.465806442,1.1332155 C0.728044299,1.48566523 1.09616688,1.97849749 1.56423671,2.60573854 C2.51126173,3.91298854 3.86104451,5.77778614 5.52353356,8.07766999 C8.51326674,12.2440986 12.5031077,17.8578683 16.9218397,24.1220638 C16.8271623,23.7656134 16.7278461,23.3221275 16.6405385,22.8030995 C16.5118935,22.0633533 16.4356961,21.1692859 16.4267899,20.1736652 C16.4337169,19.1790401 16.5158518,18.0838573 16.7197046,16.9518366 C16.9334532,15.821807 17.2471491,14.7714272 17.5964697,13.8395262 C17.9596444,12.9135989 18.3485481,12.1071462 18.7334935,11.4629796 C19.4954676,10.1686726 20.1287968,9.48667243 20.1753069,9.5235104 C20.2485356,9.57727391 19.7299973,10.3349413 19.0709392,11.648165 C18.7384414,12.3012922 18.3940686,13.1057537 18.0655291,14.0147554 C17.7518333,14.9307265 17.4618873,15.9552202 17.2540761,17.0513986 C17.0571503,18.1515595 16.962151,19.2118956 16.9285054,20.1796389 C16.9087138,21.1483779 16.943349,22.0225329 17.0215256,22.7523228 C17.103223,23.5627023 17.2052754,24.1985497 17.2650631,24.608718 C17.6482988,25.1522001 18.0346191,25.7003736 18.423657,26.2527262 C20.9213489,29.8140615 23.3022707,33.2061412 25.4694439,36.2935611 C27.6247422,39.3879503 29.566292,42.1677233 31.3366449,44.3949268 C33.097102,46.6271085 34.6695396,48.3087119 35.8016155,49.4218158 C36.3706222,49.9773722 36.8179109,50.4034979 37.1296276,50.6842629 C37.4363964,50.9680148 37.5927495,51.1253229 37.5808746,51.1402572 C37.5680101,51.1551915 37.3898863,51.0267564 37.058378,50.767895 C36.7239011,50.5130161 36.2518729,50.1107854 35.6571373,49.5781283 C34.4726138,48.5058448 32.8467391,46.8521188 31.0377927,44.6368627 C29.2199401,42.4295716 27.2378177,39.661746 25.0607487,36.585278 C23.654336,34.596174 22.1588002,32.4808717 20.5994521,30.2750222 C20.187313,30.0673203 19.5056036,29.6968479 18.6126661,29.2392896 C17.123353,28.4786354 15.0313876,27.4909796 12.6108827,26.7233561 C11.3986511,26.3460158 10.2230339,26.0662464 9.14340557,25.8671223 C8.06080853,25.691893 7.07716917,25.5724185 6.24691422,25.5435455 C4.58541474,25.4658871 3.55031739,25.576401 3.54042162,25.4838083 C3.53052585,25.4270579 4.55671701,25.1771571 6.25483083,25.1572447 C7.10190859,25.135341 8.11226652,25.2169819 9.22356129,25.3703075 C10.3318873,25.5455368 11.5381815,25.8163456 12.7731733,26.2006552 C15.2421675,26.9852043 17.3410599,28.0445448 18.7967274,28.8987873 C19.4163588,29.2647791 19.9228744,29.5903062 20.2974601,29.8478217 Z" id="Combined-Shape" fill="#FFFFFF" opacity="0.38999721"></path>
                                <path d="M31.5128885,25.2035411 C31.5861172,25.2533221 31.1220057,26.0119851 30.5322179,27.3052964 C30.2333657,27.9514542 29.9256073,28.7399858 29.6326926,29.6290751 C29.3516527,30.5251338 29.0943628,31.5227457 28.9093119,32.5890555 C28.736136,33.6563609 28.6549907,34.6848371 28.6282721,35.6237075 C28.6154076,36.5605866 28.6490532,37.4088554 28.7222819,38.1157461 C28.8568643,39.53351 29.0498318,40.4036825 28.9637386,40.4255862 C28.904364,40.4425117 28.5787932,39.6012122 28.3403052,38.1665228 C28.2175977,37.4496759 28.1423899,36.5844815 28.1275462,35.6207206 C28.1265566,34.6579554 28.1948374,33.5976193 28.3739508,32.4974584 C28.56296,31.40128 28.8439998,30.3757907 29.1576957,29.466789 C29.4852456,28.5617697 29.8385245,27.7692556 30.1878452,27.133054 C30.8795593,25.854677 31.4634097,25.1676987 31.5128885,25.2035411" id="Fill-8" fill="#E2E2E2"></path>
                                <path d="M31.406608,44.5335173 C31.3462438,44.6002238 30.6357276,43.9869215 29.3868817,43.158565 C28.7654274,42.7404043 27.9955367,42.2903838 27.1167925,41.8403632 C26.2321108,41.4022901 25.2356069,40.9731776 24.1559786,40.6127629 C23.0733816,40.2613088 22.0165135,40.0143948 21.0457387,39.8401612 C20.0729847,39.6808619 19.1873134,39.5852823 18.4401829,39.5534224 C16.9469115,39.4787509 16.012751,39.5504356 16.0038448,39.4598341 C15.9959282,39.4010925 16.9201929,39.1910165 18.4480995,39.166126 C19.2110632,39.150196 20.1214739,39.2059508 21.1229257,39.3423508 C22.1233878,39.4936852 23.2129119,39.7316385 24.3251962,40.0930489 C25.4335223,40.4634198 26.4527864,40.9184184 27.3473639,41.3933295 C28.2350143,41.8781968 29.0019363,42.3740159 29.6085469,42.8419577 C30.8257264,43.7698762 31.4481702,44.4897099 31.406608,44.5335173" id="Fill-12" fill="#E2E2E2"></path>
                            </g>
                            <g id="Group-17" transform="translate(22.406201, 0.617860)" opacity="0.89671689">
                                <path d="M23.919258,0.47008824 C20.7805986,0.477001303 17.5574292,2.02058937 15.357223,4.36312993 L15.357223,4.36312993 C12.2107021,7.71300243 10.780912,12.3309281 9.95055285,16.8619467 L9.95055285,16.8619467 C9.12117633,21.3929653 8.78215394,26.0405183 7.36022524,30.4204371 L7.36022524,30.4204371 C5.49511076,36.1661795 1.7678298,41.5534303 2.0469091,47.5905089 L2.0469091,47.5905089 C2.34662455,54.0561973 7.25507917,59.7436725 7.03397761,66.2133113 L7.03397761,66.2133113 C6.84628695,71.6519162 3.0964045,76.2382393 1.34233213,81.385508 L1.34233213,81.385508 C-1.19493109,88.8318637 0.846081967,97.648981 6.39327442,103.205108 L6.39327442,103.205108 C11.9394842,108.761235 20.7157421,112.874507 28.1152743,110.299885 L28.1152743,110.299885 C36.6144182,113.957883 47.2872362,111.679535 53.5763472,104.868193 L53.5763472,104.868193 C59.8644755,98.0578392 61.3257112,87.1924804 57.0628731,78.9471721 L57.0628731,78.9471721 C55.2714591,75.4827403 52.5386439,72.3264336 52.1072502,68.447218 L52.1072502,68.447218 C51.4164306,62.2303998 56.8447196,56.855 57.2397544,50.6144799 L57.2397544,50.6144799 C57.6161184,44.6524574 53.363107,39.4409959 48.8988209,35.4956125 L48.8988209,35.4956125 C44.433552,31.5512166 39.3098919,27.9267968 36.862052,22.4812788 L36.862052,22.4812788 C35.2445712,18.8785857 34.9763013,14.8354318 34.0722416,10.9878188 L34.0722416,10.9878188 C33.1681819,7.14020584 31.3443397,3.1543316 27.8342296,1.37273667 L27.8342296,1.37273667 C26.6166971,0.755498958 25.2979491,0.473050981 23.9624957,0.47008824 L23.9624957,0.47008824 L23.919258,0.47008824 Z" id="Fill-15" fill="url(#linearGradient-8)"></path>
                            </g>
                            <g id="Group-28" transform="translate(31.547581, 14.734967)" opacity="0.38999721">
                                <path d="M24.2259526,83.5138636 C23.9821657,83.0229586 23.6883208,82.4426331 23.3390051,81.794766 C22.7806111,80.7447256 22.0416468,79.5375769 21.1554784,78.248891 C20.2496829,76.9731317 19.1849069,75.62379 17.9572252,74.304279 C16.7177671,72.998689 15.4370919,71.8561735 14.2241306,70.8767324 C12.9954675,69.9171784 11.8423692,69.1117497 10.8335308,68.4962431 C8.82468624,67.2523032 7.48414807,66.6288417 7.54499241,66.4767051 C7.58522818,66.3673259 9.03273462,66.758108 11.1819137,67.8688042 C12.2594473,68.4186833 13.487129,69.182349 14.7825246,70.1289763 C16.0641812,71.0954908 17.4047194,72.2549104 18.6844132,73.6032577 C19.9513493,74.9635373 21.0288829,76.3765178 21.9189767,77.7198934 C22.6989951,78.9352652 23.3371709,80.088358 23.8137325,81.1183555 C23.2355575,77.5631341 22.7222112,73.5875965 22.1870844,69.3148967 C21.7056238,65.4445118 21.1939136,61.3276645 20.6603008,57.0350186 C20.2301975,56.4287283 19.5712441,55.4355052 18.7062975,54.1849681 C17.1950027,52.00335 15.0163828,49.0521001 12.2293195,46.1515624 C10.8289184,44.7087512 9.40790867,43.4300089 8.06148233,42.3342281 C6.69346607,41.268278 5.42260448,40.35347 4.29404013,39.6812851 C2.05752001,38.3070845 0.545243783,37.6627415 0.606088122,37.5046389 C0.641417093,37.4002314 2.25968023,37.8089119 4.6434044,39.0548405 C5.84164533,39.6623923 7.18807166,40.537426 8.62380178,41.5904495 C10.0369606,42.6733036 11.5148892,43.9639783 12.9476753,45.4396032 C15.7985269,48.4077572 17.9251347,51.4852903 19.3000205,53.7902086 C19.8089059,54.6452921 20.2204598,55.3931853 20.5315539,55.9993239 C20.2851718,54.0173431 20.034321,51.9995571 19.7798076,49.9527882 C18.0987374,36.2087936 16.6335664,23.7614397 15.621784,14.7456099 C15.1173648,10.2371978 14.7248206,6.58691534 14.4765365,4.06124999 C14.3519037,2.79841732 14.2635813,1.81698751 14.2154946,1.1507687 C14.167408,0.483555535 14.1575944,0.130559 14.191942,0.127575931 C14.2262896,0.122604149 14.3028357,0.465657119 14.4166735,1.12491544 C14.5295299,1.78417375 14.6806594,2.7576487 14.8641738,4.01252652 C15.2321839,6.52228217 15.7316963,10.159638 16.3264007,14.6561178 C17.3887935,22.6763814 18.7578746,33.4325068 20.2332266,45.412741 C20.3561999,44.9018179 20.5217557,44.3071241 20.7385966,43.6450882 C21.1026812,42.5075444 21.6571498,41.1949939 22.3813937,39.7909626 C23.1272275,38.399858 24.054613,36.9262217 25.1802333,35.4933541 C26.3186112,34.0724188 27.5384421,32.8374281 28.7180372,31.7993199 C29.9152967,30.7801046 31.0605442,29.9488226 32.0782149,29.3432595 C34.1057052,28.1182124 35.5011996,27.6608085 35.5473235,27.7662102 C35.6170001,27.9143693 34.3431944,28.5994809 32.4668335,29.9448452 C31.5237463,30.611064 30.4560263,31.4771485 29.330406,32.5023299 C28.2204875,33.5454098 27.0624824,34.756536 25.9623775,36.1307366 C24.8760116,37.5158751 23.956477,38.9228894 23.1900346,40.2463779 C22.4451821,41.5808042 21.8406642,42.8247441 21.4019961,43.9006378 C20.9336665,45.0277158 20.6049084,45.9508862 20.3753921,46.5682773 C20.5078141,47.6456571 20.6410334,48.7324239 20.7749069,49.8274993 C21.6012123,56.6975079 22.3882632,63.2403733 23.1046563,69.1995514 C23.7994593,75.1577351 24.4275299,80.5123445 25.2263572,84.963084 C26.0065387,89.4158121 26.9349055,92.9577097 27.6738698,95.3739958 C28.4167596,97.7882933 28.919216,99.0978607 28.8407072,99.1306744 C28.8093037,99.1436011 28.6513047,98.8303788 28.3775052,98.219844 C28.0987988,97.6122922 27.7366769,96.6945012 27.3029156,95.5002791 C26.4452067,93.1068632 25.4039834,89.5629768 24.5286101,85.0973221 C24.4252885,84.5814572 24.3245228,84.0534669 24.2259526,83.5138636 Z M39.6577511,58.2688894 C39.7333159,58.4130711 38.535075,59.1379569 36.7676451,60.5101688 C34.9972711,61.8764145 32.703832,63.9675461 30.6223668,66.6741843 C28.5507152,69.3897718 27.1189106,72.1600488 26.2504067,74.236265 C25.376996,76.3114869 24.9805265,77.6677891 24.8254715,77.6290092 C24.7116337,77.6041503 24.864726,76.1752601 25.5879885,73.9787267 C26.3043815,71.7861708 27.6851555,68.8577911 29.8294277,66.0507229 C31.9815509,63.2516095 34.4388771,61.1694271 36.3564551,59.9234985 C38.2779586,58.6676263 39.605739,58.164482 39.6577511,58.2688894 Z" id="Combined-Shape" fill="#FFFFFF"></path>
                            </g>
                        </g>
                    </g>
                </g>
                <circle id="Oval" fill="#FFFFFF" cx="183" cy="41" r="30"></circle>
                <path d="M183.151023,28 C187.610039,28 192,30.1508387 192,35.2954589 C192,40.0397028 186.809324,41.8642133 185.694569,43.5785127 C184.857682,44.8536896 185.137192,46.6454812 182.837807,46.6454812 C181.339958,46.6454812 180.608298,45.3694432 180.608298,44.2018943 C180.608298,39.8571656 186.703274,38.8738759 186.703274,35.2963199 C186.703274,33.3271573 185.452053,32.1596084 183.360656,32.1596084 C178.901639,32.1596084 180.642826,36.9744563 177.26568,36.9744563 C176.046521,36.9744563 175,36.2081447 175,34.7495695 C174.999178,31.1711525 178.899995,28 183.151023,28 Z M182.977562,49.0141591 C184.542821,49.0141591 185.834325,50.3625231 185.834325,52.0070795 C185.834325,53.6516359 184.545288,55 182.977562,55 C181.409836,55 180.119977,53.653358 180.119977,52.0070795 C180.119977,50.3633841 181.409836,49.0141591 182.977562,49.0141591 Z" id="Shape" fill="url(#linearGradient-9)" fill-rule="nonzero" opacity="0.67875744"></path>
                <path d="M317.109967,0 C322.093573,0 327,2.42244285 327,8.21671669 C327,13.5600554 321.198656,15.6149619 319.952754,17.54574 C319.017409,18.9819441 319.329803,21 316.759901,21 C315.085836,21 314.268098,19.5628261 314.268098,18.2478411 C314.268098,13.3544678 321.08013,12.2470099 321.08013,8.21768645 C321.08013,5.99986146 319.681706,4.68487647 317.344262,4.68487647 C312.360656,4.68487647 314.306688,10.1077349 310.532231,10.1077349 C309.169641,10.1077349 308,9.24465481 308,7.60189333 C307.999081,3.57160009 312.358818,0 317.109967,0 Z M317.000432,23 C318.643936,23 320,24.5768124 320,26.5 C320,28.4231876 318.646526,30 317.000432,30 C315.354338,30 314,28.4252014 314,26.5 C314,24.5778193 315.354338,23 317.000432,23 Z" id="Shape-Copy" fill="#F3F0F9" fill-rule="nonzero"></path>
                <circle id="Oval-Copy" fill="url(#linearGradient-10)" opacity="0.61625744" cx="67.5" cy="61.5" r="7.5"></circle>
            </g>
        </g>
    </g>
</svg>